<?xml version="1.0" encoding="utf-8"?>
<!-- Generator: Adobe Illustrator 21.0.0, SVG Export Plug-In . SVG Version: 6.00 Build 0)  -->
<svg version="1.1" id="图层_1" xmlns="http://www.w3.org/2000/svg" xmlns:xlink="http://www.w3.org/1999/xlink" x="0px" y="0px"
	 viewBox="0 0 210 47" style="enable-background:new 0 0 210 47;" xml:space="preserve">
<style type="text/css">
	.st0{fill:#1B94F9;}
	.st1{fill:#FFFFFF;}
</style>
<circle class="st0" cx="107.6" cy="23.3" r="14.9"/>
<g>
	<path class="st0" d="M9.9,24l-0.8,3.9c-0.2,0.7-0.3,1.4-0.4,2.1s-0.2,1.5-0.3,2.3c-0.4,0-0.9-0.1-1.3-0.1c-0.4,0-0.7,0-1.1,0
		c-0.3,0-0.7,0-1.1,0c-0.4,0-0.8,0.1-1.3,0.1c0.9-3.5,1.7-6.8,2.3-9.7s1-5.4,1.3-7.6c0.7,0.1,1.2,0.1,1.5,0.2c0.3,0,0.5,0,0.7,0
		c0.3,0,0.7,0,1.1,0c0.4,0,0.8-0.1,1.3-0.1c-0.3,1-0.6,2.2-0.9,3.5L11,18.9L10.3,22c0.7,0,1.4,0,2,0c0.6,0,1.1,0,1.7,0
		c0.2,0,0.6,0,1.2,0l2,0l0.6-2.5c0.2-0.7,0.3-1.4,0.4-2.1s0.2-1.5,0.3-2.3c0.5,0,0.9,0.1,1.3,0.1c0.4,0,0.7,0,1.1,0s0.7,0,1.1,0
		c0.4,0,0.8-0.1,1.3-0.1c-0.9,3.5-1.7,6.8-2.3,9.7s-1,5.5-1.3,7.5c-0.4,0-0.8-0.1-1.2-0.1c-0.4,0-0.7,0-0.9,0c-0.3,0-0.6,0-1,0
		s-0.9,0.1-1.5,0.1c0.2-0.6,0.3-1.2,0.5-1.8c0.2-0.6,0.3-1.3,0.5-2l1-4.5h-0.3C15,24,13.9,24,13.2,24c-0.3,0-0.7,0-1.3,0
		C11.2,24,10.6,24,9.9,24z"/>
	<path class="st0" d="M22,32.3c0.6-2.1,1-4.1,1.5-6.2s0.8-4.1,1.1-6.1c0.4,0,0.8,0,1.1,0.1c0.4,0,0.7,0,1.1,0c0.2,0,0.5,0,0.9,0
		c0.4,0,0.7,0,1.1-0.1c-0.6,2-1.1,4.1-1.5,6.2s-0.8,4.1-1.1,6.1c-0.6,0-1-0.1-1.3-0.1c-0.3,0-0.5,0-0.6,0c-0.2,0-0.6,0-0.9,0
		C23,32.3,22.6,32.3,22,32.3z M25.4,15.5c0-0.6,0.2-1.1,0.6-1.4c0.8-0.7,2.1-0.7,2.9,0c0.4,0.4,0.6,0.9,0.6,1.4
		c0,0.6-0.2,1.1-0.6,1.4c-0.8,0.8-2,0.8-2.8,0C25.6,16.5,25.4,16,25.4,15.5L25.4,15.5z"/>
	<path class="st0" d="M31.5,31.8v-0.2c-0.4-0.2-0.8-0.4-1.1-0.7c-0.2-0.3-0.4-0.7-0.4-1c0-0.6,0.3-1.2,0.7-1.6
		c0.6-0.5,1.3-0.7,2-0.8v-0.2c-0.7-0.2-1.3-0.6-1.8-1.1c-0.4-0.6-0.7-1.3-0.7-2c0-1.3,0.5-2.4,1.5-3.2c1-0.8,2.4-1.2,4.2-1.2
		c0.3,0,0.9,0,1.8,0.1s1.6,0.1,2.1,0.1c0.1,0,0.6,0,1.5-0.1l1.2-0.1c-0.1,0.2-0.2,0.5-0.3,0.7c-0.1,0.2-0.1,0.5-0.1,0.7
		c-0.7-0.1-1.1-0.1-1.5-0.1s-0.6,0-0.9,0c0.4,0.3,0.7,0.6,0.9,1.1c0.2,0.4,0.3,0.9,0.3,1.4c0,1.2-0.6,2.4-1.6,3.1
		c-1.1,0.8-2.4,1.1-4.2,1.1c-0.4,0-0.7,0-0.9,0c-0.2,0-0.4,0-0.6,0c-0.3,0-0.6,0.1-0.7,0.2c-0.2,0.2-0.3,0.4-0.3,0.6
		c0,0.6,0.9,1,2.6,1.2l0.7,0.1c1.7,0.2,2.8,0.6,3.5,1.1s1,1.4,1,2.5c0,1.6-0.7,3.1-2,4.1c-1.4,1.1-3.1,1.6-5.3,1.6
		c-1.8,0-3.2-0.4-4.2-1c-1-0.6-1.6-1.7-1.5-2.9c0-0.9,0.3-1.7,0.9-2.3C29.2,32.5,30.1,32.1,31.5,31.8z M32.3,32.4
		c-0.6,0.2-1.1,0.6-1.5,1.1c-0.4,0.5-0.6,1.1-0.6,1.7c0,0.7,0.3,1.5,0.9,2c0.7,0.5,1.6,0.7,2.4,0.7c1,0,2-0.2,2.8-0.8
		c0.7-0.5,1.1-1.2,1.1-2c0-0.8-0.4-1.5-1.1-1.8C35.7,32.8,34.3,32.5,32.3,32.4L32.3,32.4z M36.2,20.9c-0.7,0-1.2,0.4-1.7,1.1
		c-0.5,0.9-0.7,1.9-0.6,2.9c0,0.5,0.1,0.9,0.4,1.4c0.3,0.3,0.7,0.5,1.1,0.4c0.6,0,1.1-0.4,1.6-1.2c0.5-0.9,0.7-1.9,0.6-2.9
		c0-0.5-0.1-0.9-0.4-1.3C37,21,36.6,20.8,36.2,20.9L36.2,20.9z"/>
	<path class="st0" d="M41.3,32.3c0.7-3.1,1.5-6.3,2.1-9.4s1.3-6.3,1.8-9.5c0.5,0,0.9,0.1,1.2,0.1c0.3,0,0.6,0,0.7,0
		c0.2,0,0.6,0,0.9,0c0.4,0,0.7-0.1,1.2-0.1c-0.1,0.5-0.2,1-0.4,1.5c-0.1,0.5-0.3,1.3-0.5,2.1l-1,4.6c0.6-0.6,1.4-1.1,2.2-1.5
		c0.7-0.3,1.5-0.5,2.2-0.5c1.1,0,2,0.2,2.6,0.7c0.6,0.6,0.9,1.4,0.9,2.2c0,0.6-0.3,2-0.8,4.2c-0.4,1.8-0.8,3.6-1.1,5.5L52,32.1
		c-0.3,0-0.5,0-0.6,0c-0.2,0-0.6,0-0.9,0c-0.4,0-0.8,0-1.3,0.1c0.6-2.1,1.1-4.1,1.5-5.8c0.3-1.1,0.5-2.2,0.6-3.3
		c0-0.4-0.1-0.8-0.3-1.1c-0.2-0.3-0.6-0.4-0.9-0.4c-1.1,0-2,0.8-2.7,2.4s-1.3,4.3-1.7,8.2c-0.6,0-0.9-0.1-1.3-0.1
		c-0.3,0-0.6,0-0.8,0c-0.2,0-0.6,0-0.9,0S41.8,32.3,41.3,32.3z"/>
	<path class="st0" d="M75.4,31c-0.7,0.3-1.4,0.6-2.1,0.7C72.5,31.9,71.8,32,71,32c-2,0-3.5-0.5-4.6-1.5s-1.7-2.4-1.7-4.1
		c0-4.1,3.2-7.4,7.3-7.4c0,0,0.1,0,0.2,0c1.6,0,2.8,0.4,3.7,1.2s1.3,2,1.3,3.5c0,0.3,0,0.6,0,0.9s-0.1,0.7-0.2,1.1l-2.8,0h-1.8h-1.7
		h-1.7c0,0.1,0,0.2,0,0.4c0,0.3-0.1,0.6-0.1,0.9c0,0.9,0.3,1.8,0.9,2.4c0.6,0.6,1.5,0.9,2.6,0.9c0.7,0,1.3-0.1,2-0.3
		c0.6-0.2,1.2-0.5,1.7-0.9l0.3,0.3c-0.2,0.2-0.3,0.5-0.5,0.8C75.7,30.3,75.6,30.6,75.4,31z M69.2,24.2l1.3,0c0.4,0,0.6,0,0.7,0
		c0.4,0,1.1,0,2.1,0h0.1c0.1-0.4,0.2-0.7,0.2-1.1c0-0.4,0.1-0.7,0.1-1c0-0.5-0.1-1.1-0.4-1.5c-0.3-0.4-0.7-0.6-1.1-0.5
		c-0.7,0-1.2,0.4-1.7,1C69.8,22.1,69.4,23.1,69.2,24.2L69.2,24.2z"/>
	<path class="st0" d="M80.5,20.7l-0.4,0c-0.2,0-0.4,0-0.4,0c-0.3,0-0.6,0-0.9,0.1h-0.1c0.1-0.2,0.2-0.4,0.2-0.6
		c0-0.3,0.1-0.6,0.1-0.9l0.7,0c0.2,0,0.5,0,0.7,0h0.5c0.1-0.4,0.2-0.8,0.2-1.4c0.1-0.6,0.2-1.1,0.3-1.8c0.7-0.2,1.3-0.3,1.9-0.6
		c0.7-0.3,1.4-0.6,2.1-0.9l0.3,0.3c-0.2,0.7-0.4,1.4-0.6,2.2c-0.2,0.7-0.4,1.5-0.5,2.2h1H86l0.9,0c-0.1,0.2-0.2,0.5-0.2,0.7
		c0,0.3-0.1,0.6-0.1,0.8l-0.9,0c-0.2,0-0.4,0-0.6,0h-0.5h-0.4c-0.6,2.2-1,4.1-1.3,5.5c-0.2,0.9-0.4,1.9-0.4,2.9c0,0.4,0.1,0.7,0.4,1
		c0.3,0.2,0.7,0.4,1.1,0.3c0.2,0,0.4,0,0.6,0c0.2,0,0.4,0,0.6-0.1l-0.1,0.4L85,31.4c-0.5,0.2-0.9,0.3-1.5,0.4
		c-0.5,0.1-1,0.2-1.5,0.2c-1.1,0-1.9-0.2-2.5-0.7c-0.6-0.6-0.9-1.3-0.8-2.1c0-0.6,0.3-2,0.8-4.4C80,23.1,80.3,21.7,80.5,20.7z"/>
	<path class="st0" d="M60.1,12.2l2.5,0.1H65l2.3-0.1l0.3,0.1c0,0.2-0.1,0.3-0.2,0.4c-0.6,0-1.1,0.1-1.6,0.3
		c-0.4,0.2-0.8,0.9-1.1,2.1l-3.6,15.5c-0.2,0.8-0.4,1.6-0.8,2.3c-0.4,0.8-0.8,1.6-1.4,2.3c-1.1,1.3-2.3,2.4-3.7,3.3
		c-0.9,0.6-1.9,1.1-2.9,1.5c-0.4,0-0.5,0-0.5-0.2s0.1-0.2,0.2-0.3c0.9-0.4,1.7-0.9,2.4-1.6c0.9-0.9,1.7-2,2.1-3.2
		c0.2-0.4,0.4-1.2,0.8-2.4l0.2-0.5L61.6,14c0-0.4-0.1-0.7-0.3-0.9l-0.4-0.2l-0.6-0.1l-0.8,0c-0.2-0.1-0.2-0.2-0.2-0.2
		c0-0.1,0.1-0.2,0.2-0.2L60.1,12.2z"/>
</g>
<g>
	<path class="st1" d="M104.6,24.1l-0.7,3.3c-0.1,0.6-0.2,1.2-0.3,1.8c-0.1,0.6-0.2,1.3-0.2,2c-0.4,0-0.7-0.1-1.1-0.1
		c-0.3,0-0.6,0-0.9,0s-0.6,0-0.9,0c-0.3,0-0.7,0.1-1.1,0.1c0.8-3,1.5-5.8,2-8.3s0.9-4.6,1.1-6.5c0.6,0.1,1,0.1,1.3,0.1s0.4,0,0.6,0
		c0.3,0,0.6,0,0.9,0c0.3,0,0.7-0.1,1.1-0.1c-0.3,0.9-0.5,1.9-0.8,3l-0.1,0.3l-0.6,2.6c0.6,0,1.2,0,1.7,0s1,0,1.4,0c0.2,0,0.5,0,1,0
		l1.7,0l0.5-2.1c0.1-0.6,0.2-1.2,0.3-1.8c0.1-0.6,0.2-1.3,0.3-2c0.4,0,0.7,0.1,1.1,0.1c0.3,0,0.6,0,0.9,0s0.6,0,0.9,0
		c0.3,0,0.7-0.1,1.1-0.1c-0.8,3-1.5,5.8-2,8.3s-0.9,4.7-1.1,6.4c-0.4,0-0.7-0.1-1-0.1c-0.3,0-0.6,0-0.7,0c-0.3,0-0.5,0-0.9,0
		c-0.3,0-0.8,0.1-1.3,0.1c0.1-0.5,0.3-1,0.4-1.6c0.1-0.5,0.3-1.1,0.4-1.7l0.8-3.8h-0.3c-1.3,0-2.3-0.1-2.9-0.1c-0.3,0-0.6,0-1.1,0
		C105.7,24.1,105.1,24.1,104.6,24.1z"/>
</g>
<g>
	<path class="st0" d="M128.5,21.8l1-1.1c1.2,0.8,2.3,1.7,3.3,2.5c-0.5,0.5-0.8,0.9-1.1,1.2C130.5,23.4,129.5,22.5,128.5,21.8z
		 M129.1,33.9c0.8-2.3,1.4-4.8,2-7.5c0.6,0.2,1.1,0.4,1.6,0.6c-0.7,2.5-1.3,5-1.9,7.4L129.1,33.9z M129.3,16.6l1-1
		c0.8,0.6,1.9,1.5,3.3,2.7c-0.4,0.4-0.8,0.8-1.1,1.1C131,18.1,129.9,17.1,129.3,16.6z M132.7,20.8c1.6-1.5,2.9-3.4,3.9-5.6h1.7
		c-0.3,0.7-0.6,1.3-1,1.9h10.3v1.4h-11.1c-0.8,1.3-1.8,2.5-2.8,3.4C133.4,21.6,133.1,21.2,132.7,20.8z M132.9,25.1h2l0.7-4.9H146
		c0,1.8-0.1,3.4-0.1,4.9h2v1.4h-2.1c0,1.4-0.1,2.6-0.1,3.6h1.6v1.3h-1.7c-0.1,1-0.4,1.7-0.8,2.1c-0.5,0.5-1.3,0.8-2.5,0.8
		c-0.7,0-1.5,0-2.6-0.1c-0.1-0.4-0.2-1-0.3-1.6c1.3,0.1,2.2,0.2,2.9,0.2c1,0,1.6-0.5,1.8-1.5h-10v-1.4l0.5-3.5h-1.8V25.1z
		 M144.4,26.4h-8.2l-0.5,3.6h8.6C144.3,29,144.4,27.8,144.4,26.4z M144.5,21.5h-7.7l-0.5,3.5h8.1C144.5,24,144.5,22.8,144.5,21.5z
		 M138.5,27.6l0.9-0.9c0.9,0.7,1.7,1.3,2.4,2l-1,1C140.1,29,139.3,28.3,138.5,27.6z M138.8,22.6l0.9-0.9c0.8,0.6,1.6,1.3,2.5,2l-1,1
		C140.3,24,139.5,23.3,138.8,22.6z"/>
	<path class="st0" d="M148.5,25.7c0.8-0.2,1.6-0.5,2.5-0.8v-4.5h-2.3v-1.3h2.3v-3.6h1.5v3.6h2.2v1.3h-2.2v4c0.7-0.2,1.3-0.5,2-0.7
		c0,0.6,0,1.1,0,1.5c-0.7,0.2-1.4,0.5-2.1,0.8v6.2c0,1.4-0.6,2.1-1.7,2.1c-0.6,0-1.3,0-2,0c-0.1-0.5-0.2-1.1-0.3-1.6
		c0.7,0.1,1.3,0.1,1.8,0.1c0.5,0,0.7-0.3,0.7-0.8v-5.5c-0.7,0.3-1.5,0.5-2.2,0.8L148.5,25.7z M155.5,25.9h4.5v-1.7h-5.1V23h5.1v-1.6
		h-4.5v-1.3h4.5v-1.7h-5.2v-1.3h5.2v-1.8h1.5v1.8h5.7v1.3h-5.7v1.7h4.6V23h1.8v1.3H166v3.5h-1.4v-0.5h-3.2v1.9h5.1v1.3h-5.1v2.2
		c2,0,4.2,0,6.6-0.1c-0.2,0.5-0.4,1-0.6,1.5c-2.3,0-4.3,0-6,0c-2.2,0-3.9-0.7-5.1-2.1c-0.6,1.1-1.5,2-2.6,2.8
		c-0.3-0.4-0.6-0.7-1-1.1c2-1.4,3.1-3.2,3.2-5.6l1.4,0.1c-0.1,0.9-0.2,1.8-0.5,2.5c0.8,0.9,1.9,1.6,3.2,1.8v-5.2h-4.5V25.9z
		 M164.6,21.4h-3.2V23h3.2V21.4z M161.4,25.9h3.2v-1.7h-3.2V25.9z"/>
	<path class="st0" d="M168.4,29.2c1.5-2,2.6-4.2,3.3-6.6h-3.1v-1.4h3.2v-2.9c-1,0.1-1.9,0.2-2.8,0.3c-0.1-0.5-0.2-1-0.4-1.4
		c2.5-0.2,5-0.5,7.5-0.9l0.5,1.4c-1.2,0.2-2.3,0.3-3.3,0.4v3h3.1v1.4h-3.1v2.2l0.9-0.8c0.9,0.8,1.8,1.6,2.6,2.4l-1.1,1.1
		c-0.8-0.9-1.6-1.7-2.4-2.4v9.5h-1.5v-8.8c-0.8,2-1.7,3.7-2.7,5.1C168.9,30.3,168.6,29.8,168.4,29.2z M175.4,28.1l7.6-0.7v-12h1.5
		v11.9l3.1-0.3l0.1,1.4l-3.2,0.3v5.8H183v-5.7l-7.5,0.7L175.4,28.1z M176.6,23.1l0.9-1c1.5,1.2,2.6,2.1,3.3,2.8l-1,1.2
		C179.2,25.5,178.1,24.5,176.6,23.1z M177.7,18.5l0.9-1c1.4,1.1,2.6,2.1,3.5,2.9l-1,1.1C180.2,20.6,179.1,19.6,177.7,18.5z"/>
	<path class="st0" d="M188.3,25.6c1-0.3,1.9-0.6,2.8-0.8v-4.2h-2.6v-1.3h2.6v-3.8h1.5v3.8h2.3v1.3h-2.3v3.7c0.7-0.2,1.5-0.5,2.2-0.7
		c0,0.6,0,1.1,0,1.5c-0.7,0.2-1.5,0.5-2.2,0.7v6.3c0,1.4-0.6,2.1-1.9,2.1c-0.5,0-1.1,0-1.9,0c-0.1-0.5-0.2-1.1-0.3-1.7
		c0.8,0.1,1.3,0.1,1.7,0.1c0.6,0,0.8-0.3,0.8-0.9v-5.5c-0.9,0.3-1.8,0.6-2.6,0.9L188.3,25.6z M195.5,24.2v-1.3h5v-3h-5.1v-1.4h5.1
		v-3.1h1.6v3.1h5.3v1.4h-5.3v3h4.1v1.2c-0.9,2.6-2.2,4.7-3.9,6.3c1.5,1.1,3.3,2,5.4,2.6c-0.5,0.6-0.9,1.1-1.2,1.5
		c-2.1-0.9-3.9-1.9-5.4-3.1c-1.7,1.3-3.7,2.4-6,3.3c-0.3-0.4-0.6-0.9-1-1.4c2.3-0.8,4.3-1.7,5.9-2.9c-1.4-1.6-2.5-3.6-3.2-6.2H195.5
		z M204.6,24.2h-6.2c0.6,2.1,1.6,3.8,2.9,5.2C202.8,27.9,203.9,26.2,204.6,24.2z"/>
</g>
</svg>
