<?xml version="1.0" encoding="utf-8"?>
<!-- Generator: Adobe Illustrator 22.0.0, SVG Export Plug-In . SVG Version: 6.00 Build 0)  -->
<svg version="1.1" id="图层_1" xmlns="http://www.w3.org/2000/svg" xmlns:xlink="http://www.w3.org/1999/xlink" x="0px" y="0px"
	 viewBox="0 0 210 47" style="enable-background:new 0 0 210 47;" xml:space="preserve">
<style type="text/css">
	.st0{fill:#313452;}
	.st1{fill-rule:evenodd;clip-rule:evenodd;fill:#313452;}
	.st2{fill-rule:evenodd;clip-rule:evenodd;fill:#E94F25;}
</style>
<path class="st0" d="M154.1,18h0.3h5.5v-3.6h2.4V18h2.3v1.6V20h-2.3v11.5c0,1.6-0.6,2.1-1.7,2.2h-2.8h-1.2v-1.2v-0.7v0h2.5v0h0.1h0
	h0h0h0h0h0h0h0h0h0h0h0h0h0h0h0h0h0h0h0h0h0h0h0h0h0h0h0l0,0l0,0l0,0c0.3,0,0.6-0.3,0.6-0.6l0,0c0,0,0,0,0-0.1c0-0.1,0-0.1,0-0.1
	l0-0.6c0,0,0-0.1,0-0.1v-0.2c0-2.2,0-4.4,0-6.5c-1.3,2.5-3.1,4.9-5.1,6.9l-1.6-1.8c2.5-2.1,5-6,6.1-8.8h-5.1V18z M151.7,27.3h-0.2
	v-9.8h-4.3v9.8h-2v-1.6v-8.2v-1.8v-0.2h2h4.3h2v0.2v1.8v9.8H151.7z M148.2,18h2.1v9.2c0.6,1.1,3.1,3.7,3.6,4.2
	c-0.5,0.6-1,1.1-1.6,1.7l-1.7-2.1l-0.9-1.1c-1,1.5-2,2.5-3.6,3.8c-0.4-0.6-0.9-1.3-1.5-2.1c2.6-1.9,3.7-2.7,3.7-4.8V18z"/>
<path class="st1" d="M140.4,31.9c-0.1,1.1-0.9,1.9-2,1.9l0,0l-0.1,0h-0.4h-6.4l0-2h3.7h1.8c0.3,0,0.5-0.2,0.5-0.5V31H126h-0.5h0
	l0-0.4v-2.1h-3.1v0v-1.9v-0.1h20v0.1v1.9v0h-14.1v0.8h11.9v2.5v0v0C140.4,31.8,140.4,31.8,140.4,31.9 M135.7,19.7l1.9-1.4l-1.4-0.9
	h2.3v6.7h-12.1v-6.7h2.3l-1.4,0.9l1.9,1.4H127v1.4h3.1c-1,0.7-2.6,1.3-3.1,1.4l1.3,1.2c0,0,1.9-0.6,3.2-1.9v1.9h2v-2.1
	c0.3,0.2,1.1,0.7,3.1,2.1l1.3-1c0,0-1.5-1-2.7-1.6h2.7v-1.4H135.7z M136.2,17.4l-2.2,1.5l1,0.8h-1.6v-2.1h-2v2.1h-1.6l1-0.8
	l-2.2-1.5H136.2z M131,14.4h2.9v1.3h4.6h2.2v1.7v6.7v1.6v0.1h-16.6v-0.1v-1.6v-6.7v-1.7h2.2h4.6V14.4z"/>
<path class="st0" d="M182.3,28.5h-6.4v2.9h6.4V28.5z M173.2,33.7v-7.5h11.7v7.5H173.2z M184.9,25.2h-11.7v-2.1h11.7V25.2z
	 M184.9,22.1h-11.7V20h11.7V22.1z M186,18.8h-13.6v-2.2h5.2l0-2.2h3.2l0,2.2h5.2V18.8z"/>
<path class="st1" d="M172.8,14.4c-0.9,0-1.8,0-2.8,0c-0.3,3.3-1.8,6.2-3.3,8.5c0,1.1,0,2.5,0,3.6c0.7-0.7,1.4-1.5,2.1-2.4v9.6h2.5
	v-14C171.9,18.2,172.4,16.4,172.8,14.4"/>
<path class="st0" d="M195.4,22.9l3-0.4v-4.1l-3,0.4v-2.8c3.7-0.4,7-0.9,10.5-1.7l0,2.7c-1.6,0.4-2.8,0.6-4.7,0.9v4.2l6.3-0.8v2.7
	l-6.3,0.8v5.3c0,0.7,0.4,1.1,1.1,1.1h1.8c0.6,0,0.9-0.5,0.9-1l0-2.7l2.5,0v3c0,0.8,0,1.6-0.6,2.2c-0.6,0.6-1.5,1-2.8,1h-2.7
	c-2,0-3-1-3-3v-5.5l-3.1,0.4L195.4,22.9z"/>
<path class="st1" d="M188.2,25.1l2-0.6c0-1.5,0-2.9,0-4.4h-2v-2h2c0-1.2,0-2.5,0-3.6h2.3v3.6h1.9v2h-1.9v3.7l1.9-0.6v2.2l-1.9,0.6
	v5.5c0,1.6-0.6,2.1-1.7,2.2h-2.7l0-1.9h1.4c0,0,0,0,0,0l0,0l0,0c0.3,0,0.6-0.3,0.6-0.6l0,0c0,0,0,0,0-0.1c0-0.1,0-0.1,0-0.1
	c0-1.4,0-2.9,0-4.3l-2,0.6V25.1z"/>
<path class="st2" d="M49.4,14.4c7.5,0,14.7,1.7,21.1,4.7c-5.1-1.5-10.5-2.2-16.1-2.2c-12,0-23.1,3.6-32.5,9.7l0.9-4.5
	C30.5,17.2,39.7,14.4,49.4,14.4"/>
<path class="st0" d="M20.3,27c-0.6,2.9-2.7,5.2-5.8,6.2c-1.2,0.4-2.9,0.6-4.4,0.6c-1.2,0-2.3-0.1-3.2-0.4c-0.9-0.2-1.7-0.6-2.3-1.2
	c-0.6-0.5-1-1.2-1.2-2.1c-0.2-0.9-0.2-1.9,0.1-3.2l2.6-12.6h5.4L8.9,27.3c-0.2,1-0.3,1.7-0.2,2.3c0.1,0.6,0.2,1,0.5,1.3
	c0.9,0.9,2.8,0.9,4.2,0.5c2.7-0.7,2.9-2,3.3-4.1l2.6-12.8h3.5L20.3,27z M70.2,20.6l-0.6,3.1c-1.1-1.2-4.5-2.7-6.1-1.8
	c-0.2,0.1-0.3,0.2-0.5,0.4c-0.4,0.6-0.2,1.4,0.3,1.9c0.3,0.2,0.6,0.3,0.9,0.5c0.5,0.2,1,0.4,1.5,0.6c0.5,0.2,1,0.5,1.5,0.8
	c0.4,0.3,0.8,0.7,1,1.2c0.2,0.5,0.3,1.1,0.1,1.9c-0.6,3.2-3.4,4.7-6.4,4.6c-1.5,0-3.6-0.5-4.8-1.4l0.6-3c0.4,0.5,3.3,3,5.7,2.4
	c0.4-0.1,1-0.4,1.3-0.8c0.3-0.5,0.5-1.5,0-2c-0.3-0.3-0.7-0.5-1.1-0.7c-0.5-0.2-1-0.4-1.5-0.6c-0.5-0.2-1-0.4-1.5-0.7
	c-0.4-0.3-0.8-0.7-1-1.2c-0.2-0.5-0.3-1.1-0.1-1.9c0.2-1.1,0.9-2,1.8-2.6c1.6-1.2,3.2-1.5,5-1.4C67.3,19.9,69.2,20.4,70.2,20.6z
	 M44,22.8c-0.9-0.6-2.8-0.7-3.9,0.2c-0.2,0.2-0.4,0.3-0.6,0.5l-1.9,10.2h-3.9l2.6-13.8h3.9L39.7,22c1.1-2.1,3.1-2.3,4.9-2.1L44,22.8
	z M30.1,22c-0.3,1.5-0.9,4.5-1.4,7.3c-0.1,0.5-0.1,0.9,0,1.2c0.1,0.3,0.5,0.5,1,0.5c0.1,0,0.4,0,0.6,0c0.3,0,0.5,0,0.8-0.1
	c0.3,0,0.6-0.1,0.8-0.1c0.3,0,0.5-0.1,0.7-0.1l-0.2,1.1c-0.4,0.2-0.8,0.4-1.3,0.6c-0.5,0.2-1,0.4-1.5,0.6c-0.5,0.2-1,0.3-1.5,0.4
	c-0.5,0.1-1,0.2-1.4,0.2c-0.3,0-0.7,0-1-0.1c-0.3-0.1-0.6-0.2-0.8-0.4c-0.2-0.2-0.4-0.5-0.5-0.8c-0.1-0.3-0.1-0.8,0-1.4l0.6-3.3
	l0.7-3.6C27.2,23.4,28.6,22.7,30.1,22z M27.7,14.4h3.9c-0.2,1.2-0.4,2-0.5,2.6c-1.5,0.6-2.9,1.2-4.3,1.9L27.7,14.4z M50,19.9l-1.7,9
	c-0.2,0.8-0.1,1.4,0.1,1.8c0.5,1,2.9,0.6,3.9,0.2c0.3-0.1,0.6-0.2,0.9-0.4c0.3-0.1,0.6-0.3,0.8-0.5l1.9-10.2h2.5l-2.6,13.8h-2.3
	l0.4-2.1l-0.2,0.2c-2.1,1.2-5.8,2.5-7.7,1.7c-0.4-0.2-0.8-0.4-1.1-0.8c-0.3-0.3-0.5-0.8-0.6-1.3c-0.1-0.5-0.1-1.1,0-1.8l1.9-9.8H50z
	 M72.3,17.3H75h1.1h0l-0.5,2.6h4.1l-0.5,1.5c-0.8,0.2-1.7,0.2-2.5,0.3c-0.5,0-1,0.1-1.5,0.1l0,0.1l-1.2,6.5l-0.2,1
	c-0.1,0.5-0.1,0.9,0,1.2c0.1,0.3,0.5,0.5,1,0.5c0.1,0,0.4,0,0.6,0c0.3,0,0.5,0,0.8-0.1c0.3,0,0.6-0.1,0.8-0.1c0.3,0,0.5-0.1,0.7-0.1
	l-0.2,1.1c-0.4,0.2-0.8,0.4-1.3,0.6c-0.5,0.2-1,0.4-1.5,0.6c-0.5,0.2-1,0.3-1.5,0.4c-0.5,0.1-1,0.2-1.4,0.2c-0.3,0-0.7,0-1-0.1
	c-0.3-0.1-0.6-0.2-0.8-0.4c-0.2-0.2-0.4-0.5-0.5-0.8c-0.1-0.3-0.1-0.8,0-1.4l0.5-2.7C71.2,22.8,71.5,21.3,72.3,17.3z"/>
<path class="st2" d="M95.8,27.3v-3.2c0-0.1,0.1-0.2,0.2-0.2h5.8c0.1,0,0.2,0.1,0.2,0.2v3.2c0,0.1-0.1,0.2-0.2,0.2H96
	C95.9,27.5,95.8,27.4,95.8,27.3 M95.8,32v-3.2c0-0.1,0.1-0.2,0.2-0.2h5.8c0.1,0,0.2,0.1,0.2,0.2V32c0,0.1-0.1,0.2-0.2,0.2H96
	C95.9,32.1,95.8,32.1,95.8,32z M95.8,36.6v-3.2c0-0.1,0.1-0.2,0.2-0.2l5.8,0c0.1,0,0.2,0.1,0.2,0.2v3.2c0,0.1-0.1,0.2-0.2,0.2
	l-5.8,0C95.9,36.8,95.8,36.7,95.8,36.6z M102,40.9c-0.8,0.1-1.6,0.2-2.4,0.2c-1.3,0-2.5-0.1-3.8-0.4v-2.5c0-0.1,0.1-0.2,0.2-0.2
	l5.8,0c0.1,0,0.2,0.1,0.2,0.2V40.9z M109.2,38.1c-1.8,1.2-3.9,2.1-6.1,2.6v-2.6c0-0.1,0.1-0.2,0.2-0.2l5.8,0
	C109.1,38,109.2,38,109.2,38.1z M113.9,33.3c-0.8,1.3-1.9,2.5-3,3.5l-0.4,0c-0.1,0-0.2-0.1-0.2-0.2v-3.2c0-0.1,0.1-0.2,0.2-0.2
	L113.9,33.3z M116,28.6c-0.3,1.2-0.8,2.4-1.4,3.5h-4.1c-0.1,0-0.2-0.1-0.2-0.2v-3.2c0-0.1,0.1-0.2,0.2-0.2H116z M116.6,23.9l0,0.1
	c0,1.2-0.1,2.3-0.3,3.4h-5.8c-0.1,0-0.2-0.1-0.2-0.2v-3.2c0-0.1,0.1-0.2,0.2-0.2H116.6z M114.6,16.2c1,1.9,1.7,4,1.9,6.3l-20.7,0
	v-5.9c0-0.2,0.2-0.4,0.4-0.4L114.6,16.2z M109,33.3h-5.8c-0.1,0-0.2,0.1-0.2,0.2v3.2c0,0.1,0.1,0.2,0.2,0.2l5.8,0
	c0.1,0,0.2-0.1,0.2-0.2v-3.2C109.2,33.4,109.1,33.3,109,33.3z M109,28.6h-5.8c-0.1,0-0.2,0.1-0.2,0.2V32c0,0.1,0.1,0.2,0.2,0.2h5.8
	c0.1,0,0.2-0.1,0.2-0.2v-3.2C109.2,28.7,109.1,28.6,109,28.6z M109,23.9h-5.8c-0.1,0-0.2,0.1-0.2,0.2v3.2c0,0.1,0.1,0.2,0.2,0.2h5.8
	c0.1,0,0.2-0.1,0.2-0.2v-3.2C109.2,24,109.1,23.9,109,23.9z M99.6,7.1c5.8,0,10.9,2.9,14,7.3H93.2c-0.4,0-0.7,0.3-0.7,0.7v24.4
	c-2.8-1.3-5.1-3.3-6.8-5.8V14.4C88.7,10,93.8,7.1,99.6,7.1z"/>
</svg>
