<svg xmlns="http://www.w3.org/2000/svg" xmlns:xlink="http://www.w3.org/1999/xlink" viewBox="0 0 66.54 34.65"><defs><style>.cls-1,.cls-6{fill:none;}.cls-10,.cls-2,.cls-9{fill:#fff;}.cls-3{fill:#0b2c6b;}.cls-4{fill:#f2f2f2;}.cls-5{clip-path:url(#clip-path);}.cls-6{stroke:#0b2c6b;stroke-miterlimit:10;stroke-width:2px;}.cls-7{fill:#e53630;}.cls-10,.cls-8,.cls-9{isolation:isolate;}.cls-9{font-size:7.17px;letter-spacing:0.02em;}.cls-10,.cls-9{font-family:AdobeKaitiStd-Regular-GBpc-EUC-H, Adobe Kaiti Std;}.cls-10{font-size:5px;letter-spacing:0.02em;}</style><clipPath id="clip-path"><path class="cls-1" d="M48.71,4.48a25.08,25.08,0,0,0-6.79-2.76A29.11,29.11,0,0,0,34.61.83a28.8,28.8,0,0,0-8.8,1.42,23.77,23.77,0,0,0-6.65,3.37c-4.09,3-6.62,7.17-6.59,11.77,0,4.15,2.15,7.91,5.59,10.78a23.08,23.08,0,0,0,7.66,4.12,28.74,28.74,0,0,0,9,1.36,29,29,0,0,0,7.78-1.11A23.72,23.72,0,0,0,51,28.3c3.66-3,5.91-6.89,5.88-11.2C56.84,12,53.66,7.45,48.71,4.48Z"/></clipPath></defs><title>资源 2</title><g id="图层_2" data-name="图层 2"><g id="图层_1-2" data-name="图层 1"><g id="图层_2-2" data-name="图层 2"><g id="图层_1-2-2" data-name="图层 1-2"><path class="cls-2" d="M66.15,22,51.71,27.68l-1.3-8s5.65-3.39,6.46-2.42c.51.61,9,2.82,9,2.82Z"/><path class="cls-3" d="M51.44,28.16,50,19.49l.2-.12s1.44-.86,3-1.59c2.9-1.39,3.63-1.14,3.95-.76s4.77,1.66,8.78,2.71l.22.06.41,2.44Zm-.65-8.32L52,27.2l13.77-5.41-.24-1.44c-2.68-.7-8.41-2.27-8.92-2.88,0,0-.41-.36-3.11.94C52.33,19,51.23,19.59,50.79,19.84Z"/><path class="cls-4" d="M48.71,4.48a25.08,25.08,0,0,0-6.79-2.76A29.11,29.11,0,0,0,34.61.83a28.8,28.8,0,0,0-8.8,1.42,23.77,23.77,0,0,0-6.65,3.37c-4.09,3-6.62,7.17-6.59,11.77,0,4.15,2.15,7.91,5.59,10.78a23.08,23.08,0,0,0,7.66,4.12,28.74,28.74,0,0,0,9,1.36,29,29,0,0,0,7.78-1.11A23.72,23.72,0,0,0,51,28.3c3.66-3,5.91-6.89,5.88-11.2C56.84,12,53.66,7.45,48.71,4.48Z"/><path class="cls-3" d="M34.57,34a29,29,0,0,1-8.85-1.38,23.59,23.59,0,0,1-7.78-4.18c-3.66-3-5.69-7-5.72-11,0-4.56,2.36-8.84,6.73-12A24.08,24.08,0,0,1,25.7,1.92,29.11,29.11,0,0,1,34.61.49a29.4,29.4,0,0,1,7.4.89,25.41,25.41,0,0,1,6.88,2.8h0c5.26,3.16,8.29,7.87,8.33,12.92,0,4.25-2.11,8.33-6,11.48a24.21,24.21,0,0,1-8.5,4.3A29.34,29.34,0,0,1,34.83,34Zm.24-32.81h-.2a28.42,28.42,0,0,0-8.7,1.4A23.39,23.39,0,0,0,19.37,5.9C15.18,9,12.89,13.05,12.92,17.38c0,3.87,2,7.6,5.47,10.51A22.88,22.88,0,0,0,25.93,32a28.3,28.3,0,0,0,8.89,1.34,28.65,28.65,0,0,0,7.69-1.1A23.51,23.51,0,0,0,50.77,28c3.73-3,5.77-6.89,5.75-10.93,0-4.8-2.94-9.29-8-12.32a24.72,24.72,0,0,0-6.69-2.72A28.79,28.79,0,0,0,34.81,1.18Z"/><g class="cls-5"><path class="cls-3" d="M18.66,29l-.1-.08A15.38,15.38,0,0,1,13,17.48c0-4.7,2.3-9.11,6.55-12.43L19.64,5l.09.07a17.84,17.84,0,0,0,4,2.38l.14.06-.07.13a20,20,0,0,0-2.42,9.8,20.23,20.23,0,0,0,1.79,8.3l.06.12-.12.06a16.8,16.8,0,0,0-4.35,3Zm1-23.62c-4.13,3.26-6.39,7.57-6.36,12.15a15.08,15.08,0,0,0,5.38,11.1,17.08,17.08,0,0,1,4.21-2.86,20.5,20.5,0,0,1-1.76-8.29,20.31,20.31,0,0,1,2.38-9.8A18.12,18.12,0,0,1,19.64,5.33Z"/><path class="cls-3" d="M51,29.1,51,29a11.89,11.89,0,0,0-4-3.06l-.12-.06.05-.12a20.46,20.46,0,0,0,1.78-8.52h0A19.88,19.88,0,0,0,45.49,6.48l-.08-.12.12-.07a18.75,18.75,0,0,0,3.19-2.43l.08-.07.09.06C54,7.11,57,12,57,17.17A15.52,15.52,0,0,1,51.16,29Zm-3.9-3.36a12.19,12.19,0,0,1,3.93,3,15.21,15.21,0,0,0,5.65-11.54c0-5.07-2.91-9.82-7.9-13a19,19,0,0,1-3,2.31,20.2,20.2,0,0,1,3.1,10.78A20.74,20.74,0,0,1,47.15,25.74Z"/><path class="cls-3" d="M45.56,6.59l-.07-.11a14.67,14.67,0,0,0-4.38-4.36L40.95,2l.15-.12A6.8,6.8,0,0,0,42,1l.06-.07.09,0a24.09,24.09,0,0,1,6.74,2.91l.15.1-.13.12a19,19,0,0,1-3.24,2.46ZM41.41,2a14.93,14.93,0,0,1,4.23,4.23A18.76,18.76,0,0,0,48.59,4a23.81,23.81,0,0,0-6.43-2.76A7.09,7.09,0,0,1,41.41,2Z"/><path class="cls-3" d="M23.74,7.73l-.12,0a18.12,18.12,0,0,1-4.07-2.42l-.14-.11L19.56,5a23.08,23.08,0,0,1,6.6-3.55l.09,0,.06.07a6.18,6.18,0,0,0,1.42,1.14l.17.1-.16.13A15.5,15.5,0,0,0,23.8,7.62ZM19.87,5.15a17.85,17.85,0,0,0,3.75,2.22,15.77,15.77,0,0,1,3.8-4.56,6.45,6.45,0,0,1-1.25-1A22.8,22.8,0,0,0,19.87,5.15Z"/><path class="cls-3" d="M42.73,33.5l-.05-.1a3.48,3.48,0,0,0-.9-1.07l-.14-.11.15-.11a15.82,15.82,0,0,0,5.06-6.36l.06-.13.13.06a12.21,12.21,0,0,1,4.14,3.13l.09.11-.1.09a23.39,23.39,0,0,1-8.32,4.46Zm-.64-1.27a3.75,3.75,0,0,1,.77.94,23.13,23.13,0,0,0,8-4.29A12,12,0,0,0,47,26,16.12,16.12,0,0,1,42.09,32.23Z"/><path class="cls-3" d="M26.27,33.24l-.08,0a22.38,22.38,0,0,1-7.61-4.34l-.11-.1.11-.11a17,17,0,0,1,4.42-3l.13-.06.06.13a16.17,16.17,0,0,0,4.64,6l.16.13-.18.1a6.37,6.37,0,0,0-1.48,1.18Zm-7.4-4.48a22.1,22.1,0,0,0,7.32,4.16,6.64,6.64,0,0,1,1.3-1.06A16.48,16.48,0,0,1,23,26,16.76,16.76,0,0,0,18.87,28.76Z"/><path class="cls-3" d="M34.87,34.65a26.94,26.94,0,0,1-8.69-1.44l-.2-.07.15-.16a6.64,6.64,0,0,1,1.54-1.23l.14.24a6.36,6.36,0,0,0-1.33,1,26.7,26.7,0,0,0,8.63,1.35v.28Z"/><path class="cls-3" d="M35.11,34.65v-.28a26.94,26.94,0,0,0,7.48-1.11,3.48,3.48,0,0,0-.81-.92l.17-.22a3.75,3.75,0,0,1,1,1.15l.08.15-.16,0A27.23,27.23,0,0,1,35.11,34.65Z"/><path class="cls-3" d="M27.59,2.91a6.45,6.45,0,0,1-1.49-1.2L26,1.56l.2-.07A27,27,0,0,1,34.9,0V.28a26.75,26.75,0,0,0-8.44,1.41,6.17,6.17,0,0,0,1.27,1Z"/><path class="cls-3" d="M41.27,2.11l-.18-.21a6.81,6.81,0,0,0,.77-.75,27.05,27.05,0,0,0-7-.87V0a27.42,27.42,0,0,1,7.26.93l.21.06-.14.17A7.08,7.08,0,0,1,41.27,2.11Z"/><path class="cls-3" d="M23,26l-.06-.13a20.5,20.5,0,0,1-1.82-8.41,20.28,20.28,0,0,1,2.45-9.94l.06-.11.12,0a23.82,23.82,0,0,0,4.86,1.5l.14,0,0,.14a36.65,36.65,0,0,0-.85,8.28h0a38.11,38.11,0,0,0,.61,6.57l0,.13-.13,0a23.4,23.4,0,0,0-5.24,1.79Zm.76-18.24a20,20,0,0,0-2.36,9.69,20.22,20.22,0,0,0,1.73,8.17,23.67,23.67,0,0,1,5-1.73,38.4,38.4,0,0,1-.59-6.49,36.92,36.92,0,0,1,.83-8.2A24.1,24.1,0,0,1,23.74,7.73Z"/><path class="cls-3" d="M47,26l-.13-.06a22.44,22.44,0,0,0-5.2-1.73l-.13,0,0-.13a38,38,0,0,0,.55-6.77h0A36,36,0,0,0,41,8.47l0-.13.12,0a21.33,21.33,0,0,0,4.38-2l.11-.07.07.11a20.2,20.2,0,0,1,3.18,10.9,20.74,20.74,0,0,1-1.8,8.64ZM41.9,24a22.72,22.72,0,0,1,5,1.67,20.46,20.46,0,0,0,1.72-8.39A20,20,0,0,0,45.55,6.59a21.61,21.61,0,0,1-4.2,1.94,36.29,36.29,0,0,1,1.08,8.74A38.25,38.25,0,0,1,41.9,24Z"/><path class="cls-3" d="M41.09,8.62l0-.14a19.51,19.51,0,0,0-2-5.12l-.08-.13.14-.06a9.25,9.25,0,0,0,2-1.27l.08-.06.09.06a14.94,14.94,0,0,1,4.46,4.45l.08.12-.12.07a21.61,21.61,0,0,1-4.44,2.05ZM39.33,3.35a19.85,19.85,0,0,1,2,4.92,21.35,21.35,0,0,0,4.12-1.9,14.66,14.66,0,0,0-4.21-4.19A9.52,9.52,0,0,1,39.33,3.35Z"/><path class="cls-3" d="M28.68,9.23l-.13,0a24.09,24.09,0,0,1-4.92-1.52l-.14-.06.07-.13a15.78,15.78,0,0,1,4-4.8l.07-.06.08,0a10.31,10.31,0,0,0,2.69,1.1l.17,0L30.51,4a21.27,21.27,0,0,0-1.8,5.12Zm-4.8-1.74A23.82,23.82,0,0,0,28.47,8.9,21.66,21.66,0,0,1,30.19,4a10.59,10.59,0,0,1-2.51-1A15.5,15.5,0,0,0,23.88,7.48Z"/><path class="cls-3" d="M41.86,32.4l-.08-.06a7.19,7.19,0,0,0-2.35-1.21l-.16,0,.08-.15A22.65,22.65,0,0,0,41.61,24l0-.14.14,0A22.72,22.72,0,0,1,47,25.68l.12.06-.06.12a16.06,16.06,0,0,1-5.15,6.48Zm-2.18-1.48a7.46,7.46,0,0,1,2.19,1.14,15.78,15.78,0,0,0,4.92-6.18,22.44,22.44,0,0,0-4.93-1.65A23.05,23.05,0,0,1,39.68,30.92Z"/><path class="cls-3" d="M27.72,32,27.64,32a16.41,16.41,0,0,1-4.72-6.15l-.06-.12.12-.06a23.67,23.67,0,0,1,5.31-1.82l.14,0,0,.14a23.51,23.51,0,0,0,2.19,6.73l.08.16-.17,0A10.61,10.61,0,0,0,27.8,32Zm-4.49-6.2a16.13,16.13,0,0,0,4.51,5.86,10.89,10.89,0,0,1,2.57-1.06,23.93,23.93,0,0,1-2.11-6.51A23.4,23.4,0,0,0,23.23,25.84Z"/><path class="cls-6" d="M35.11,34.51"/><path class="cls-3" d="M41.86,24.23l-.14,0a35.81,35.81,0,0,0-7.61-.73,28,28,0,0,0-5.76.64l-.14,0,0-.14a38.4,38.4,0,0,1-.6-6.62A36.92,36.92,0,0,1,28.44,9l0-.13.13,0a28,28,0,0,0,5.65.53,22.36,22.36,0,0,0,6.9-1.15l.14,0,0,.14a36.29,36.29,0,0,1,1.11,8.86,38.25,38.25,0,0,1-.56,6.81Zm-7.33-1a36,36,0,0,1,7.1.71,38,38,0,0,0,.53-6.63A36,36,0,0,0,41.1,8.62a22.63,22.63,0,0,1-6.84,1.11,28.35,28.35,0,0,1-5.57-.51,36.65,36.65,0,0,0-.82,8.15,38.13,38.13,0,0,0,.57,6.43,28.29,28.29,0,0,1,5.67-.61Z"/><path class="cls-3" d="M34,9.74a28.34,28.34,0,0,1-5.48-.54l-.14,0,0-.14a21.42,21.42,0,0,1,1.83-5.19l.05-.1.11,0a14.59,14.59,0,0,0,3.78.46,11.69,11.69,0,0,0,4.86-1.07l.11-.05.06.11a19.76,19.76,0,0,1,2.08,5.19l0,.13-.12,0a22.64,22.64,0,0,1-7,1.16ZM28.74,9a28.13,28.13,0,0,0,5.51.5A22.36,22.36,0,0,0,41,8.35a19.54,19.54,0,0,0-1.95-4.89,12,12,0,0,1-4.86,1,14.86,14.86,0,0,1-3.75-.44A21.15,21.15,0,0,0,28.74,9Z"/><path class="cls-3" d="M39.54,31.17l-.11,0a17,17,0,0,0-5.28-.72,14.73,14.73,0,0,0-3.59.46l-.11,0-.05-.1A23.72,23.72,0,0,1,28.18,24l0-.13.13,0a28.28,28.28,0,0,1,5.82-.65,36,36,0,0,1,7.66.73l.13,0,0,.13a22.89,22.89,0,0,1-2.28,7Zm-5.23-1a17.31,17.31,0,0,1,5.1.7,22.65,22.65,0,0,0,2.17-6.66,35.65,35.65,0,0,0-7.47-.7,28,28,0,0,0-5.63.61,23.48,23.48,0,0,0,2.12,6.5,15,15,0,0,1,3.55-.44Z"/><path class="cls-6" d="M35.11,34.51"/><path class="cls-3" d="M39.43,31.13a17,17,0,0,0-5.28-.72,14.73,14.73,0,0,0-3.59.46l-.07-.27a15,15,0,0,1,3.66-.47,17.22,17.22,0,0,1,5.37.73Z"/><path class="cls-3" d="M34.07,4.51A14.88,14.88,0,0,1,30.36,4l.07-.27a14.55,14.55,0,0,0,3.78.46,11.69,11.69,0,0,0,4.86-1.07l.12.25a12,12,0,0,1-5,1.1Z"/><path class="cls-6" d="M34.9.14"/><rect class="cls-3" x="34.6" y="4.55" width="0.28" height="25.56"/></g><path class="cls-7" d="M66.07,21.92H.35V16.77l3.12-.08a16.6,16.6,0,0,1,.14-2.78,2.8,2.8,0,0,1,3.05-2.22l6.8-.08v1.72h52.6Z"/><path class="cls-3" d="M66.41,22.27H0V16.43l3.12-.08a17,17,0,0,1,.15-2.48,3.14,3.14,0,0,1,3.4-2.52l7.15-.08V13h52.6ZM.69,21.58h65v-7.9H13.12V12L6.67,12C4.38,12,4,13.64,4,14a16.28,16.28,0,0,0-.13,2.71V17L.69,17.1Z"/><g class="cls-8"><text class="cls-9" transform="translate(12.09 20.43)">INOTRANS</text><text class="cls-10" transform="translate(47.84 19.6)">&amp;</text><text class="cls-9" transform="translate(51.6 20.43)">CSC</text></g><path class="cls-2" d="M2.22,19.46v.69H8.05A1.77,1.77,0,0,0,10,18.62c0-.84-.6-1.14-1.87-1.77A6.29,6.29,0,0,1,6.28,15.7a1.59,1.59,0,0,1-.34-1c0-.67.59-1.61,2.56-1.61.72,0,3,.07,3,.07v.69h-.14v-.56H8.47c-.83,0-1.61.54-1.61,1.24s.48,1,1.7,1.59a7.14,7.14,0,0,1,1.9,1.11,1.65,1.65,0,0,1,.48,1.16c0,1.06-1,1.89-2.84,1.89l-6,0v-.83Z"/><path class="cls-2" d="M8.11,20.68l-6,0H1.74V19.39h.56v.69H8.05c.76,0,1.6-.56,1.6-1.25s-.39-1-1.69-1.67l-.11-.06A5.87,5.87,0,0,1,6,15.92a1.94,1.94,0,0,1-.42-1.17c0-.2.08-2,2.92-2,.72,0,2.94.07,3,.07h.34V14h-.56v-.56H8.47c-1,0-1.33.69-1.26,1.17.08.64.27.64,1.51,1.28l.38.19a5.53,5.53,0,0,1,1.62,1,2,2,0,0,1,.58,1.39C11.29,19.57,10.31,20.68,8.11,20.68ZM6.66,14a1,1,0,0,0-.38.76,1.24,1.24,0,0,0,.28.75,6,6,0,0,0,1.6,1l.11.05c1.28.63,2.06,1,2.06,2.08a1.61,1.61,0,0,1-.22.81,1.24,1.24,0,0,0,.49-1,1.3,1.3,0,0,0-.39-.92,5.27,5.27,0,0,0-1.41-.85L8.4,16.5c-1.22-.63-1.89-1-1.89-1.9A1.29,1.29,0,0,1,6.66,14Z"/></g></g></g></g></svg>