<?xml version="1.0" encoding="utf-8"?>
<!-- Generator: Adobe Illustrator 21.0.0, SVG Export Plug-In . SVG Version: 6.00 Build 0)  -->
<svg version="1.1" id="图层_1" xmlns="http://www.w3.org/2000/svg" xmlns:xlink="http://www.w3.org/1999/xlink" x="0px" y="0px"
	 viewBox="0 0 176 33.5" style="enable-background:new 0 0 176 33.5;" xml:space="preserve">
<style type="text/css">
	.st0{fill:#FFFFFF;}
	.st1{fill:#0B2C6B;}
	.st2{fill:none;stroke:#0B2C6B;stroke-width:0.5;stroke-miterlimit:10;}
	.st3{fill:#E53630;}
	.st4{enable-background:new    ;}
	.st5{fill:#0A6FC7;}
	.st6{fill:#333333;}
</style>
<title>ll综合分析平台</title>
<path class="st0" d="M66,21.3L51.5,27l-1.3-8c0,0,5.7-3.4,6.5-2.4c0.5,0.6,9,2.8,9,2.8L66,21.3z"/>
<path class="st1" d="M51.3,27.4l-1.4-8.7l0.2-0.1c0,0,1.4-0.9,3-1.6c2.9-1.4,3.6-1.1,4-0.8c0.4,0.4,4.8,1.7,8.8,2.7l0.2,0.1l0.4,2.4
	L51.3,27.4z M50.6,19.1l1.2,7.4l13.8-5.4l-0.2-1.4c-2.7-0.7-8.4-2.3-8.9-2.9c0,0-0.4-0.4-3.1,0.9C52.2,18.3,51.1,18.9,50.6,19.1z"/>
<path class="st0" d="M34.7,33.2c-12.3,0-22.3-7.4-22.3-16.4s10-16.4,22.3-16.4S57,7.7,57,16.8S47,33.2,34.7,33.2z"/>
<path class="st1" d="M34.7,0.7c12.1,0,22,7.2,22,16.1s-9.8,16.1-22,16.1s-22-7.2-22-16.1S22.6,0.7,34.7,0.7 M34.7,0
	C22.2,0,12.1,7.5,12.1,16.8s10.1,16.8,22.6,16.8S57.3,26,57.3,16.8S47.2,0,34.7,0z"/>
<path class="st1" d="M34.7,0.7c12.1,0,22,7.2,22,16.1s-9.8,16.1-22,16.1s-22-7.2-22-16.1S22.6,0.7,34.7,0.7 M34.7,0.3
	c-12.3,0-22.3,7.4-22.3,16.4s10,16.4,22.3,16.4S57,25.8,57,16.8S47,0.3,34.7,0.3L34.7,0.3z"/>
<path class="st2" d="M27.5,30.4c-4.2-3.3-6.6-8.4-6.4-13.7c0-6,2.8-11.2,6.9-14"/>
<path class="st2" d="M41.3,2.7c4.2,2.7,7,8,7,14.1c0.1,5.3-2.3,10.4-6.4,13.7"/>
<path class="st2" d="M41.3,2.7"/>
<path class="st2" d="M50.2,5.4c-4.7,2.8-10,4.2-15.5,4.1c-5.6,0.1-11.1-1.4-15.9-4.4"/>
<path class="st2" d="M18.7,28c4.8-3,10.3-4.6,16-4.5c5.6-0.1,11.1,1.4,15.8,4.4"/>
<path class="st2" d="M24.4,31.3c6.5-2.2,13.6-2.2,20.2-0.2"/>
<path class="st2" d="M27.9,2.7C27,2.5,26.1,2.2,25.2,2"/>
<path class="st2" d="M44.2,2c-3.1,0.9-6.3,1.4-9.5,1.4c-2.3,0-4.6-0.2-6.8-0.7"/>
<path class="st2" d="M31.1,29.8c-1.5-2.9-2.5-7.7-2.5-13.1c0-5.7,1.1-10.7,2.8-13.6"/>
<path class="st2" d="M38,3.2c1.7,2.9,2.8,7.9,2.8,13.6c0,5.4-1,10.1-2.5,13.1"/>
<line class="st2" x1="34.7" y1="3.4" x2="34.7" y2="29.6"/>
<path class="st3" d="M66.1,21.1H0.3V16l3.1-0.1c0-0.9,0-1.9,0.1-2.8c0.3-1.4,1.6-2.4,3-2.2l6.8-0.1v1.7H66L66.1,21.1z"/>
<path class="st1" d="M66.4,21.5H0v-5.8l3.1-0.1c0-0.8,0-1.7,0.2-2.5c0.3-1.6,1.8-2.7,3.4-2.5l7.1-0.1v1.7h52.6L66.4,21.5z M0.7,20.8
	h65v-7.9H13.1v-1.7H6.7c-2.3,0-2.7,1.6-2.7,2c-0.1,0.9-0.2,1.8-0.1,2.7v0.3l-3.2,0.1L0.7,20.8z"/>
<g class="st4">
	<path class="st0" d="M12.1,19.4c0.6,0,0.6,0,0.6-0.6v-3.7c0-0.5,0-0.6-0.6-0.6v-0.2h1.8v0.2c-0.6,0-0.6,0-0.6,0.6v3.7
		c0,0.5,0,0.6,0.6,0.6v0.2h-1.8V19.4z"/>
	<path class="st0" d="M15.7,14.3l2.6,4.5h0v-3.8c0-0.5-0.1-0.6-0.6-0.6v-0.2h1.4v0.2c-0.5,0-0.5,0-0.5,0.6v4.6h-0.4l-2.7-4.8h0v3.9
		c0,0.5,0,0.6,0.6,0.6v0.2h-1.4v-0.2c0.5,0,0.6,0,0.6-0.6v-3.7c0-0.5,0-0.6-0.6-0.6v-0.2H15.7z"/>
	<path class="st0" d="M19.8,17c0-1.9,0.9-2.8,2.2-2.8c1.4,0,2.2,1,2.2,2.8c0,1.8-0.8,2.8-2.2,2.8C20.4,19.8,19.8,18.4,19.8,17z
		 M20.9,15c-0.3,0.4-0.5,1-0.5,2c0,0.8,0.2,1.5,0.5,2c0.3,0.3,0.7,0.5,1.1,0.5c0.4,0,0.9-0.2,1.1-0.5c0.3-0.4,0.5-1.1,0.5-2
		c0-1-0.2-1.6-0.5-2c-0.3-0.4-0.7-0.5-1.1-0.5C21.6,14.5,21.2,14.7,20.9,15z"/>
	<path class="st0" d="M27.2,14.7v4.2c0,0.5,0,0.6,0.7,0.6v0.2h-1.9v-0.2c0.6,0,0.7,0,0.7-0.6v-4.2h-0.9c-0.4,0-0.5,0-0.6,0.9h-0.3
		l0.2-1.2h3.8l0.2,1.2h-0.3c-0.2-0.9-0.2-0.9-0.6-0.9H27.2z"/>
	<path class="st0" d="M31.3,14.3c0.6,0,1,0.1,1.4,0.3c0.3,0.2,0.5,0.6,0.5,1c0,0.8-0.6,1.3-1.3,1.4l1.1,1.8c0.3,0.5,0.4,0.5,0.7,0.5
		v0.2h-1l-1.4-2.5h-0.7v1.7c0,0.5,0,0.6,0.6,0.6v0.2h-1.7v-0.2c0.5,0,0.6,0,0.6-0.6v-3.7c0-0.5,0-0.6-0.6-0.6v-0.2H31.3z M30.8,14.6
		c-0.2,0-0.2,0.1-0.2,0.5v1.8h0.5c0.9,0,1.4-0.3,1.4-1.2c0-0.6-0.3-1.1-1.3-1.1H30.8z"/>
	<path class="st0" d="M36.9,18H35l-0.3,0.9c0,0.2-0.1,0.3-0.1,0.3c0,0.2,0.1,0.2,0.4,0.2v0.2h-1.2v-0.2c0.3,0,0.4-0.1,0.5-0.4
		l1.5-4.8h0.3l1.6,4.7c0.1,0.4,0.2,0.5,0.5,0.5v0.2h-1.4v-0.2c0.3,0,0.4,0,0.4-0.2c0-0.1,0-0.2-0.1-0.3L36.9,18z M36.8,17.7
		l-0.9-2.5h0l-0.8,2.5H36.8z"/>
	<path class="st0" d="M40,14.3l2.6,4.5h0v-3.8c0-0.5-0.1-0.6-0.6-0.6v-0.2h1.4v0.2c-0.5,0-0.5,0-0.5,0.6v4.6h-0.4l-2.7-4.8h0v3.9
		c0,0.5,0,0.6,0.6,0.6v0.2h-1.4v-0.2c0.5,0,0.6,0,0.6-0.6v-3.7c0-0.5,0-0.6-0.6-0.6v-0.2H40z"/>
	<path class="st0" d="M44.3,18.3c0.2,0.9,0.6,1.1,1.2,1.1c0.5,0,1.1-0.3,1.1-1c0-0.6-0.4-0.9-1.1-1.4c-0.5-0.3-0.9-0.6-1.1-0.9
		c-0.1-0.2-0.2-0.5-0.2-0.7c0-0.5,0.4-1.2,1.6-1.2c0.4,0,0.8,0.1,1.1,0.2c0,0.3,0.1,0.7,0.2,1.1l-0.3,0.1c-0.2-0.8-0.3-1-1-1
		c-0.5,0-1,0.3-1,0.8s0.3,0.7,1,1.2c0.6,0.4,0.9,0.6,1.2,0.9c0.2,0.2,0.3,0.5,0.3,0.9c0,0.8-0.6,1.4-1.7,1.4c-0.4,0-0.8-0.1-1.2-0.2
		c-0.1-0.5-0.1-0.8-0.2-1.1L44.3,18.3z"/>
</g>
<g class="st4">
	<path class="st0" d="M51.3,17.1c-0.2,0-0.3,0-0.4,0.3c-0.1,0.3-0.2,0.7-0.4,0.9c0.2,0.2,0.3,0.3,0.5,0.3c0.1,0,0.2,0,0.3-0.1
		l0.1,0.1c-0.1,0.1-0.2,0.2-0.5,0.2c-0.2,0-0.4-0.1-0.6-0.3c-0.2,0.2-0.5,0.3-0.8,0.3c-0.8,0-1-0.5-1-0.9c0-0.6,0.4-0.8,0.7-1
		c-0.2-0.3-0.3-0.6-0.3-0.8c0-0.5,0.4-0.7,0.8-0.7c0.5,0,0.7,0.3,0.7,0.6c0,0.4-0.3,0.7-0.8,0.9c0.2,0.4,0.5,0.8,0.8,1.2
		c0.2-0.3,0.3-0.6,0.3-0.9c0-0.1-0.1-0.2-0.3-0.2V17h0.8V17.1z M49.5,18.7c0.2,0,0.4-0.1,0.6-0.3c-0.3-0.4-0.6-0.8-0.9-1.2
		c-0.1,0.1-0.2,0.1-0.3,0.2c-0.1,0.1-0.2,0.3-0.2,0.5C48.8,18.5,49.2,18.7,49.5,18.7z M49.2,16.1c0,0.2,0.1,0.4,0.3,0.7
		c0.2-0.1,0.6-0.4,0.6-0.8c0-0.3-0.2-0.4-0.4-0.4C49.4,15.7,49.2,15.9,49.2,16.1z"/>
</g>
<g class="st4">
	<path class="st0" d="M55.7,15.7c-0.2-0.8-0.3-1.2-1.1-1.2c-1.1,0-1.6,1-1.6,2.4c0,2.3,1.1,2.5,1.5,2.5c0.8,0,1.1-0.6,1.3-1.2
		l0.3,0.1c-0.3,0.9-0.9,1.4-1.7,1.4c-0.6,0-1.1-0.2-1.5-0.6c-0.4-0.5-0.6-1.2-0.6-2.2c0-1.8,0.9-2.7,2.2-2.7c0.3,0,0.6,0,1.2,0.2
		c0.1,0.4,0.1,0.8,0.2,1.2L55.7,15.7z"/>
	<path class="st0" d="M57.1,18.3c0.2,0.9,0.6,1.1,1.2,1.1c0.5,0,1.1-0.3,1.1-1c0-0.6-0.4-0.9-1.1-1.4c-0.5-0.3-0.9-0.6-1.1-0.9
		c-0.1-0.2-0.2-0.5-0.2-0.7c0-0.5,0.4-1.2,1.6-1.2c0.4,0,0.8,0.1,1.1,0.2c0,0.3,0.1,0.7,0.2,1.1l-0.3,0.1c-0.2-0.8-0.3-1-1-1
		c-0.5,0-1,0.3-1,0.8s0.3,0.7,1,1.2c0.6,0.4,0.9,0.6,1.2,0.9c0.2,0.2,0.3,0.5,0.3,0.9c0,0.8-0.6,1.4-1.7,1.4c-0.4,0-0.8-0.1-1.2-0.2
		c-0.1-0.5-0.1-0.8-0.2-1.1L57.1,18.3z"/>
	<path class="st0" d="M64.1,15.7c-0.2-0.8-0.3-1.2-1.1-1.2c-1.1,0-1.6,1-1.6,2.4c0,2.3,1.1,2.5,1.5,2.5c0.8,0,1.1-0.6,1.3-1.2
		l0.3,0.1c-0.3,0.9-0.9,1.4-1.7,1.4c-0.6,0-1.1-0.2-1.5-0.6c-0.4-0.5-0.6-1.2-0.6-2.2c0-1.8,0.9-2.7,2.2-2.7c0.3,0,0.6,0,1.2,0.2
		c0.1,0.4,0.1,0.8,0.2,1.2L64.1,15.7z"/>
</g>
<path class="st0" d="M11.8,13.4v-1.2c0,0-2.6,0-3.3,0c-2.8,0-2.9,1.8-2.9,2c0,0.4,0.2,0.8,0.4,1.2c0.5,0.5,1.2,0.9,1.8,1.2L8,16.7
	c1.3,0.7,1.7,1,1.7,1.7S8.8,19.6,8,19.6H2.3v-0.7H1.7v1.3h6.4c2.2,0,3.2-1.1,3.2-2.2c0-0.5-0.2-1-0.6-1.4c-0.5-0.4-1-0.8-1.6-1
	l-0.4-0.2c-1.2-0.6-1.4-0.6-1.5-1.3C7.1,13.6,7.5,13,8.5,13l2.8-0.1v0.6H11.8z"/>
<path class="st5" d="M80.7,6.9l-2.1,3.5c0.4,0.1,0.7,0.1,1.1,0.2c0.2-0.4,0.4-0.8,0.5-1.3l0.1-0.4l0.1-0.3h0.1c0,0,0.3,0.1,1,0.4
	s0.9,0.5,1,0.6c0,0.1-0.1,0.3-0.5,0.3c-0.2,0.3-0.3,0.4-0.4,0.6l-1.3,1.9l-1,1.5c0.6,0,1.5-0.1,2.6-0.2h0.5c0.1,0,0.2,0,0.2,0.1
	c0,0.1,0,0.1-0.1,0.2l-0.5,0.2l-1.7,0.8l-0.9,0.4l-0.8,0.4L78,16c-0.2,0.1-0.3,0.1-0.3,0.1c0,0-0.1-0.2-0.1-0.5l-0.4-1.5v-0.2
	c0,0,0.1,0,0.1,0l0,0c0.4,0,0.8-0.2,1-0.5c0.5-0.7,0.9-1.4,1.2-2.2l-1.2,0.2l-0.5,0.1c-0.2,0-0.3,0-0.3,0v-0.2l-0.2-1.1
	c0-0.1,0-0.1,0-0.2c0.1,0,0.2-0.1,0.2-0.1c0.2-0.1,0.3-0.2,0.4-0.4C78,9.3,78.2,9,78.3,8.7c0.2-0.4,0.3-0.9,0.5-1.4
	c0.2-0.6,0.3-0.9,0.3-1.1l0.1-0.5c0,0,0-0.1,0-0.1c0,0,0.1,0,0.2,0.1c0.2,0.1,0.4,0.2,0.6,0.2c0.3,0.1,0.6,0.2,0.9,0.4
	c0.2,0.1,0.3,0.2,0.3,0.3C81.3,6.7,81.1,6.9,80.7,6.9z M77.7,17.5c1.2-0.2,2.6-0.5,4.2-1l0.5-0.1c0.1,0,0.1,0,0.2,0.1
	c0,0.1,0,0.1-0.1,0.1L82,17c-0.2,0.2-1.4,0.9-3.5,2.3L78,19.6l-0.2,0.2c-0.1,0-0.1,0-0.1-0.2l-0.5-1.8c0,0,0-0.1,0-0.2
	c0,0,0.1-0.1,0.2-0.1L77.7,17.5z M85.1,16.1c-0.4,0.4-1,1-1.8,1.6c-0.8,0.7-1.3,1.1-1.6,1.3l-0.4,0.3c-0.1,0.1-0.2,0.1-0.2,0
	c0-0.1,0-0.1,0-0.2l0.3-0.4c0.8-0.9,1.4-2,1.9-3.1l0.2-0.5l0.1-0.3h0.1c0.4,0.1,0.7,0.2,1.1,0.4c0.6,0.3,1,0.5,1,0.5
	C85.7,16,85.5,16.1,85.1,16.1z M89.2,13.9c0.2-0.2,0.4-0.5,0.6-0.8c0.1-0.2,0.3-0.3,0.3-0.3c0.1,0,0.3,0.1,0.4,0.2
	c0.3,0.2,0.6,0.5,0.8,0.8c0.1,0.2,0.2,0.3,0.2,0.4c0,0.1-0.1,0.1-0.2,0.1h-3.7c0,0.1-0.1,0.3-0.3,0.3v4.2c0,0.3,0,0.5-0.1,0.7
	c-0.1,0.2-0.3,0.3-0.6,0.4c-0.3,0.1-0.6,0.2-1,0.2c-0.2,0-0.3,0-0.3-0.1c-0.1-0.1-0.1-0.3-0.1-0.5c0-0.2-0.1-0.4-0.3-0.6
	c-0.2-0.1-0.4-0.2-0.6-0.3L84,18.6c-0.2,0-0.3-0.1-0.2-0.2c0-0.1,0.1-0.1,0.2-0.1h0.6c0.3,0,0.7,0,1,0c0.1,0,0.2-0.2,0.2-0.3v-3.8
	h-2.5h-0.8l-0.4-0.4l1,0.1L89.2,13.9z M89.4,9H84c0.1,0.1,0.1,0.3,0.2,0.5c0.1,0.3,0.1,0.5,0,0.8c-0.1,0.2-0.2,0.4-0.4,0.6
	c-0.2,0.2-0.4,0.3-0.7,0.3c-0.2,0-0.5-0.1-0.6-0.2c-0.1-0.1-0.2-0.3-0.3-0.5c0-0.1,0-0.3,0-0.4c0.1-0.1,0.2-0.2,0.3-0.3
	c0.1-0.1,0.2-0.3,0.3-0.4C82.9,9.2,82.9,9,83,8.9c0-0.2,0-0.4,0-0.6c0-0.1,0-0.2,0-0.3c0-0.1,0.1-0.1,0.3,0c0.1,0.1,0.1,0.2,0.2,0.2
	c0.1,0.1,0.2,0.3,0.4,0.5h5.4c0.2-0.4,0.4-0.5,0.5-0.6c0.2,0,0.4,0.1,0.5,0.2l1,0.8c0.4,0.3,0.5,0.5,0.5,0.6c0,0.2-0.2,0.3-0.3,0.4
	c-0.1,0-0.3,0-0.4,0l-0.4-0.1c-0.2,0-0.4,0-0.6,0.1c-0.2,0.1-0.5,0.2-0.7,0.3L89,10.8c-0.1,0.1-0.2,0.1-0.2,0c0-0.1,0-0.1,0-0.2
	l0.2-0.4C89,10.1,89.1,9.7,89.4,9L89.4,9z M87.4,11.6c0.1-0.1,0.3-0.3,0.5-0.6c0.2-0.2,0.3-0.4,0.4-0.4c0.2,0,0.4,0.1,0.5,0.2
	c0.3,0.2,0.6,0.5,0.9,0.8c0.1,0.1,0.1,0.1,0.1,0.2c0,0.1,0,0.1-0.1,0.1h-5h-0.8l-0.4-0.5l1,0.1L87.4,11.6z M85.6,5.5
	c0.5,0.1,1,0.3,1.4,0.6c0.3,0.2,0.5,0.4,0.6,0.7c0.1,0.2,0.1,0.4,0.1,0.6c0,0.3-0.2,0.5-0.4,0.7c-0.2,0.2-0.5,0.3-0.8,0.3
	c-0.3,0-0.5-0.1-0.7-0.2c-0.1-0.2-0.2-0.4-0.2-0.6c0-0.2,0-0.3,0-0.5c0-0.2,0-0.5-0.1-0.7c-0.1-0.2-0.2-0.3-0.3-0.4
	c-0.1-0.1-0.2-0.2-0.3-0.4c-0.1-0.1,0-0.1,0.2-0.1L85.6,5.5z M88.5,15.2c1.5,0.6,2.3,1.2,2.5,1.6c0.2,0.4,0.3,0.8,0.3,1.2
	c0,0.3-0.1,0.6-0.3,0.8c-0.2,0.2-0.4,0.3-0.7,0.3c-0.2,0-0.4,0-0.6-0.2c-0.2-0.2-0.3-0.5-0.4-0.7c-0.1-0.4-0.2-0.8-0.3-1.2
	c-0.1-0.4-0.3-0.7-0.5-1c-0.2-0.2-0.3-0.4-0.5-0.5c-0.1-0.1-0.2-0.1-0.2-0.2c0-0.1,0-0.1,0-0.2c0,0,0.1,0,0.2,0L88.5,15.2z"/>
<path class="st5" d="M100.6,6.8c0.3,0.5,0.6,1,1,1.5c0.6,0.7,1.3,1.3,2.1,1.7c1,0.7,2.2,1.1,3.4,1.3l0.6,0.1c0.1,0,0.1,0,0.1,0.1
	c0,0.1,0,0.1-0.1,0.2l-0.3,0.2c-0.2,0.1-0.4,0.3-0.6,0.5c-0.2,0.2-0.4,0.4-0.5,0.7c0,0.2-0.1,0.3-0.2,0.4c0,0-0.1,0-0.3,0
	c-0.1,0-0.3-0.1-0.4-0.2l-0.7-0.4c-0.4-0.3-0.8-0.6-1.2-0.9c-0.6-0.5-1.1-1-1.5-1.7c-0.7-1.1-1.2-2.2-1.7-3.3
	c-1,1.8-2.4,3.4-3.9,4.7c-0.9,0.7-1.9,1.3-2.9,1.9L93,13.9c-0.1,0-0.2,0-0.2,0s0-0.1,0.1-0.2l0.5-0.4c0.7-0.6,1.4-1.4,1.9-2.1
	c0.5-0.7,1-1.4,1.5-2.1c0.2-0.4,0.5-1,0.9-1.6C97.8,7,98,6.6,98.2,6.2l0.2-0.5V5.4h0.1c0.5,0.1,1.1,0.2,1.6,0.4
	c0.4,0.1,0.7,0.2,1.1,0.4c0,0,0.1,0.1,0.1,0.2C101.1,6.5,101,6.6,100.6,6.8z M97.4,14.4h5l0.3-0.5c0-0.1,0.1-0.2,0.2-0.2
	c0.1,0,0.3,0,0.4,0.1c1,0.5,1.6,0.8,1.6,1c0,0.2-0.1,0.4-0.4,0.6v3l0.1,1.2c0,0.1-0.1,0.2-0.1,0.3c-0.1,0.1-0.3,0.2-0.7,0.2h-0.5
	c-0.4,0-0.6,0-0.6-0.3v-1h-5.4v0.7c0,0.2,0,0.3-0.1,0.5C97,19.9,96.6,20,96,19.9c-0.1,0-0.2,0-0.4-0.1c-0.1-0.1-0.2-0.1-0.2-0.2
	l0.1-1.4v-3.1l-0.1-1.6v-0.1c0,0,0.1,0,0.3,0.1L97.4,14.4z M96.7,12.3l-0.3-0.4l1,0.1h3.5c0.3-0.4,0.6-0.8,1-1.1
	c0.1,0,0.3,0.1,0.4,0.2l0.5,0.5l0.4,0.4c0.1,0.1,0.1,0.2,0.1,0.2c0,0.1-0.1,0.1-0.2,0.1h-5.5L96.7,12.3z M97.3,18.4h5.4v-3.7h-5.4
	L97.3,18.4z"/>
<path class="st5" d="M115,8.9c-1.5,1.7-3.3,3.2-5.3,4.4l-0.7,0.4c-0.1,0.1-0.2,0.1-0.2,0c0-0.1,0-0.1,0-0.2l0.5-0.5
	c0.3-0.3,0.6-0.6,0.8-0.8c0.2-0.3,0.7-0.8,1.3-1.7c0.6-0.7,1.1-1.5,1.5-2.3l0.4-0.7l0.1-0.3c0.1,0,0.2,0,0.3,0.1
	c0.2,0.1,0.4,0.2,0.6,0.3c0.3,0.2,0.7,0.4,1,0.6c0.3,0.2,0.4,0.3,0.4,0.4C115.6,8.8,115.4,8.9,115,8.9z M116,12.6l-0.3,0.2
	c-0.2,0.8-0.3,1.5-0.5,2.2c-0.2,0.7-0.5,1.3-0.9,1.8c-0.4,0.5-0.9,1-1.4,1.4c-0.7,0.5-1.5,0.8-2.3,1.1l-0.9,0.3c-0.1,0-0.1,0-0.1,0
	c0,0,0,0,0,0c0-0.1,0-0.1,0.1-0.2l0.4-0.2c0.2-0.1,0.5-0.3,0.7-0.5c0.3-0.2,0.7-0.5,1-0.8c0.4-0.4,0.7-0.9,1-1.4
	c0.3-0.5,0.6-1.1,0.7-1.7c0.1-0.5,0.2-1.3,0.3-2.3h-0.6H112l-0.4-0.4l1.2,0.1h4.8c0.4-0.5,0.6-0.7,0.7-0.7c0.1,0,0.3,0.1,0.4,0.2
	l0.7,0.4c0.2,0.1,0.4,0.3,0.6,0.5c0.1,0.1,0.2,0.2,0.2,0.3c0,0.1-0.1,0.3-0.4,0.4c0,0.5-0.1,0.8-0.1,1.1c0,0.3-0.1,0.7-0.1,1.2
	c-0.1,0.6-0.1,1.1-0.2,1.5c-0.1,0.4-0.2,0.8-0.5,1.2c-0.2,0.3-0.5,0.6-0.8,0.8c-0.3,0.2-0.6,0.3-1,0.4c-0.2,0-0.4,0-0.6,0
	c-0.1,0-0.1,0-0.2-0.1c-0.1-0.2-0.1-0.4-0.1-0.6c0-0.4-0.4-0.7-1.1-0.9l-0.4-0.1c-0.1,0-0.2-0.1-0.1-0.1c0-0.1,0.1-0.1,0.1-0.1h0.5
	c0.5,0.1,1,0.1,1.5,0c0.3-0.1,0.6-0.4,0.7-0.8c0.2-0.6,0.2-1.1,0.3-1.7c0.1-0.7,0.1-1.1,0.1-1.3v-1.3L116,12.6z M117.6,6.6
	c0.1,0.3,0.1,0.6,0.2,1c0.2,0.6,0.5,1.1,0.9,1.5c0.5,0.7,1.2,1.3,1.9,1.7c0.6,0.4,1.3,0.7,2,0.8l0.6,0.1c0.1,0,0.2,0.1,0.2,0.1
	c0,0.1,0,0.1-0.1,0.1l-0.4,0.2c-0.2,0.1-0.4,0.3-0.5,0.5c-0.2,0.2-0.3,0.5-0.4,0.7c0,0.1-0.1,0.3-0.2,0.4c0,0-0.1,0-0.2-0.1
	c-0.6-0.3-1-0.5-1.2-0.6c-0.4-0.3-0.7-0.5-1.1-0.9c-0.5-0.4-0.9-0.9-1.3-1.5c-0.3-0.5-0.6-0.9-0.8-1.4c-0.2-0.5-0.4-0.8-0.4-1
	s-0.1-0.5-0.3-0.9c-0.1-0.4-0.2-0.7-0.3-0.9c0-0.2-0.1-0.3-0.2-0.5c-0.1-0.1-0.1-0.2-0.1-0.2s0.1-0.1,0.2-0.1c0.2,0,0.3,0,0.5,0
	c0.3,0,0.6,0.1,1,0.1c0,0,0.1,0.1,0.1,0.1C117.9,6.1,117.8,6.3,117.6,6.6L117.6,6.6z"/>
<path class="st5" d="M125.7,9.6H125l-0.4-0.5l1,0.1h1.4V7l-0.1-1.4c0,0,0.1-0.1,0.1-0.1c1.3,0.1,1.9,0.2,2,0.4
	c0,0.1-0.1,0.3-0.4,0.5v2.9h0.2l0.5-0.6c0.2-0.2,0.3-0.4,0.4-0.4c0.1,0,0.2,0.1,0.3,0.2c0.2,0.2,0.4,0.4,0.6,0.5
	c0.2,0.2,0.4,0.4,0.4,0.5c0,0.1-0.1,0.1-0.1,0.1h-2.3v2c0.5,0.1,0.9,0.2,1.4,0.4c0.2,0.1,0.5,0.3,0.6,0.5c0.2,0.2,0.3,0.5,0.3,0.7
	c0,0.3-0.1,0.5-0.2,0.7c-0.1,0.2-0.4,0.3-0.6,0.4c-0.2,0-0.4,0-0.6-0.2c-0.1-0.1-0.2-0.3-0.3-0.5l-0.1-0.7c0-0.2-0.1-0.3-0.2-0.5
	c-0.1-0.2-0.3-0.4-0.4-0.5v5.8l0.1,1.6c-0.1,0.2-0.3,0.4-0.5,0.4c-0.3,0.1-0.5,0.1-0.8,0.1c-0.3,0-0.5-0.1-0.5-0.3l0.1-1.8V14
	c-0.5,0.6-1,1.2-1.6,1.7l-0.4,0.3c-0.1,0-0.1,0.1-0.2,0c0-0.1,0-0.1,0-0.2l0.2-0.3c0.2-0.4,0.5-0.9,0.6-1.4c0.2-0.6,0.4-1.1,0.5-1.4
	c0.1-0.3,0.2-0.8,0.4-1.5l0.3-1.2l0.1-0.5L125.7,9.6z M135.1,11.5h-1.9c0,0.9,0,1.8-0.1,2.7c0,0.7-0.2,1.4-0.4,2
	c-0.3,0.6-0.6,1.2-1.1,1.7c-0.5,0.6-1.2,1.1-1.9,1.5l-0.7,0.4c0,0-0.1,0.1-0.1,0c0,0,0,0,0,0c0,0,0-0.1,0-0.2l0.4-0.4
	c0.3-0.3,0.5-0.6,0.7-0.9c0.4-0.5,0.7-1.1,0.9-1.7c0.2-0.7,0.4-1.4,0.4-2.1c0.1-0.7,0.1-1.2,0.1-1.6v-1.2c0-0.5,0-0.8,0-0.9
	l-0.1-1.8V8.5l-0.1-0.8c0-0.4-0.1-0.7-0.1-0.8c0-0.1,0-0.2,0.2-0.2l1.9,0.7c0.9-0.3,1.8-0.7,2.7-1.2l0.5-0.3l0.1-0.1
	c0,0,0.1-0.1,0.1-0.1c0,0,0.1,0,0.3,0.2l0.6,0.5l0.7,0.6c0.4,0.3,0.5,0.5,0.5,0.6c0,0.1-0.2,0.1-0.3,0.1h-1.3h-1.1
	c-0.6,0-1.5,0-2.9,0.1c0,0.5,0,0.8,0,0.9v2.5h3.8c0.5-0.6,0.8-1,0.8-1c0.1-0.1,0.1-0.1,0.2-0.1c0.1,0,0.2,0.1,0.3,0.1
	c0.8,0.6,1.2,1,1.1,1.1c0,0.1-0.1,0.2-0.2,0.2h-2.1c0,0.1-0.1,0.2-0.1,0.2l-0.2,0.1v5.7l0.1,1.7c-0.1,0.2-0.2,0.4-0.5,0.5
	c-0.3,0.1-0.5,0.1-0.8,0.1c-0.1,0-0.3,0-0.4-0.1c-0.1-0.1-0.1-0.2-0.2-0.3l0.1-1.9L135.1,11.5z"/>
<path class="st5" d="M146.8,14V7.3h-4.3h-0.7l-0.5-0.4l1,0.1h9c0.4-0.4,0.6-0.8,0.8-1s0.3-0.3,0.4-0.3c0.1,0,0.2,0.1,0.3,0.1
	c0.3,0.3,0.7,0.6,1,0.9c0.2,0.3,0.4,0.4,0.3,0.5c0,0.1-0.1,0.1-0.3,0.1h-5.2V14h3.6c0.3-0.5,0.7-0.9,1.1-1.3c0.1,0,0.2,0,0.4,0.2
	c0.4,0.3,0.7,0.6,1,1c0.2,0.2,0.3,0.4,0.3,0.4c0,0.1-0.1,0.1-0.3,0.1h-6.1v3.3l0.1,1.7c0,0.2-0.1,0.3-0.2,0.5
	c-0.1,0.2-0.4,0.2-0.9,0.2c-0.5,0-0.8,0-0.9-0.1c-0.1-0.1-0.1-0.2-0.1-0.4l0.1-2v-3.3h-5.2h-0.6l-0.5-0.4l1,0.1L146.8,14z
	 M143.1,9.2c1.6,0.8,2.4,1.5,2.4,2.2c0,0.5-0.1,1-0.4,1.4c-0.2,0.2-0.5,0.4-0.9,0.3c-0.5,0-0.8-0.2-0.9-0.5c-0.1-0.3-0.1-0.6,0-1
	c0-0.2,0.1-0.5,0.1-0.7c0-0.2,0-0.4-0.1-0.5c-0.1-0.2-0.2-0.5-0.3-0.7c-0.1-0.1-0.2-0.2-0.3-0.3c-0.1-0.1-0.1-0.1-0.1-0.2
	c0-0.1,0.1-0.1,0.3,0L143.1,9.2z M150,13l-0.4,0.4c-0.1,0.1-0.2,0.1-0.2,0c-0.1-0.1,0-0.1,0-0.3l0.2-0.3c0.1-0.1,0.3-0.6,0.7-1.4
	c0.4-0.8,0.6-1.4,0.7-1.7l0.2-0.6V8.9c0-0.1,0.1-0.1,0.3,0c1.3,0.6,2,1.1,2,1.3c0,0.1-0.1,0.2-0.1,0.2l-0.3,0.1l-0.4,0.1
	C151.8,11.3,151,12.1,150,13L150,13z"/>
<path class="st5" d="M164.1,6.9c-0.8,0.6-1.3,1-1.7,1.3l-1.7,1.5l-0.9,0.7c3.6,0,6.2,0,7.8-0.1c-0.5-0.5-1.1-1-1.7-1.4
	c-0.2-0.1-0.3-0.2-0.5-0.3c-0.1-0.1,0-0.1,0.1-0.2c0.4,0.1,0.8,0.1,1.3,0.3c0.8,0.2,1.5,0.4,2.2,0.7c0.6,0.2,1,0.6,1.3,1.1
	c0.1,0.4,0.2,0.8,0.1,1.2c-0.1,0.3-0.3,0.5-0.5,0.7c-0.2,0.3-0.6,0.3-1,0.2c-0.2-0.1-0.4-0.2-0.5-0.4l-0.2-0.5l-0.3-0.8l-0.8,0.1
	l-4,0.6c-2.4,0.4-3.8,0.6-4.2,0.7l-0.8,0.2c-0.1,0-0.2,0.1-0.3,0.1c0,0,0,0-0.1-0.1l-0.1-0.3l-0.6-1.3l-0.2-0.4c0,0,0,0,0.1-0.1
	c0.2,0,0.4-0.1,0.7-0.1c0.4-0.1,1.1-0.6,2.1-1.6c0.7-0.7,1.4-1.6,1.9-2.5l0.3-0.6l0.1-0.3h0.1c0.5,0.1,1,0.3,1.5,0.5
	c0.9,0.3,1.3,0.6,1.2,0.9C164.7,6.8,164.5,6.9,164.1,6.9z M168.5,14.7V18l0.1,1.3c-0.1,0.2-0.4,0.4-1,0.5c-0.6,0.1-0.9,0.1-1,0
	c-0.1-0.1-0.1-0.3-0.1-0.5v-0.8h-5.6v0.7c0,0.1,0,0.3-0.1,0.4c0,0.1-0.3,0.2-0.6,0.3c-0.2,0.1-0.5,0.1-0.7,0.1c-0.1,0-0.2,0-0.3-0.1
	c-0.1-0.1-0.1-0.1-0.1-0.2l0.1-1.5v-3.6l-0.1-1.5c0.1,0,0.2,0,0.3,0.1l1.7,0.7h5.3c0.2-0.3,0.4-0.6,0.6-0.8c0.2,0,0.4,0,0.5,0.1
	c0.4,0.2,0.7,0.4,1,0.6c0.2,0.1,0.3,0.2,0.5,0.4C168.9,14.3,168.8,14.5,168.5,14.7L168.5,14.7z M160.9,18.2h5.6v-4.1h-5.6V18.2z"/>
<path class="st6" d="M80.9,25.3c0.2,0,0.4,0.1,0.6,0.2c0.2,0.1,0.3,0.2,0.5,0.3c0.1,0.1,0.2,0.2,0.3,0.4c0.1,0.1,0.1,0.2,0.1,0.4
	c0,0.1,0,0.2,0,0.4c0,0.1,0,0.3,0,0.4c0,0.1-0.1,0.3-0.1,0.4c-0.1,0.3-0.4,0.6-0.7,0.8c-0.2,0.1-0.4,0.2-0.6,0.2c-0.2,0-0.4,0-0.6,0
	h-3.7v-0.3h0.1c0.1,0,0.2,0,0.4,0c0.1,0,0.2-0.1,0.2-0.1c0-0.1,0.1-0.1,0.1-0.2c0-0.1,0-0.2,0-0.4v-4.6c0-0.1,0-0.2,0-0.3
	c0-0.1-0.1-0.1-0.1-0.2c0-0.1-0.1-0.1-0.2-0.1c-0.1,0-0.2,0-0.2,0h-0.2v-0.3h3.5c0.2,0,0.4,0,0.6,0c0.2,0,0.4,0.1,0.5,0.1
	c0.2,0.1,0.3,0.1,0.4,0.2c0.1,0.1,0.2,0.2,0.3,0.4c0.1,0.1,0.1,0.3,0.2,0.4c0,0.1,0,0.3,0,0.4c0,0.1,0,0.2,0,0.4
	c0,0.2-0.1,0.3-0.2,0.5c-0.1,0.1-0.2,0.3-0.4,0.4c-0.1,0.1-0.3,0.2-0.5,0.2c-0.2,0.1-0.3,0.1-0.5,0.1l-0.5,0.1
	C80.5,25.3,80.7,25.3,80.9,25.3z M78.9,25.1h0.9L80,25c0.1,0,0.3-0.1,0.4-0.2c0.2-0.1,0.3-0.2,0.4-0.3c0.1-0.1,0.1-0.3,0.2-0.4
	c0-0.1,0-0.3,0-0.4c0-0.2,0-0.4-0.1-0.6c0-0.2-0.1-0.3-0.3-0.4c-0.1-0.1-0.3-0.2-0.4-0.2c-0.1,0-0.3-0.1-0.4-0.1h-0.5
	c-0.1,0-0.1,0-0.2,0c-0.1,0-0.1,0-0.2,0.1c0,0-0.1,0.1-0.1,0.1c0,0.1,0,0.2,0,0.3L78.9,25.1z M78.9,25.5V28c0,0.1,0,0.2,0,0.3
	c0,0,0,0.1,0.1,0.1c0.1,0,0.2,0,0.3,0h0.6c0.2,0,0.3,0,0.5-0.1c0.1,0,0.3-0.1,0.4-0.2c0.1-0.1,0.2-0.2,0.2-0.4
	c0-0.1,0.1-0.3,0.1-0.4c0-0.1,0-0.2,0-0.4c0-0.1,0-0.2,0-0.3c0-0.2-0.1-0.4-0.1-0.5c-0.1-0.1-0.2-0.3-0.3-0.4
	c-0.1-0.1-0.3-0.2-0.4-0.2c-0.2-0.1-0.4-0.1-0.7-0.1L78.9,25.5z"/>
<path class="st6" d="M84.8,27.4c0,0.2,0,0.4,0,0.5c0,0.1,0,0.2,0.1,0.2c0.1,0.1,0.2,0.1,0.3,0.1h0.2c0.1,0,0.2-0.1,0.2-0.1l0.3-0.2
	c0.1,0,0.1-0.1,0.2-0.2l0.1-0.1v-2.4c0-0.1,0-0.1,0-0.2c-0.1,0-0.1-0.1-0.2,0h-0.3v-0.3h0.3c0.1,0,0.3,0,0.4,0l0.3,0l0.2-0.1
	l0.2-0.1l0.2-0.1v3.7c0,0.1,0,0.2,0,0.3c0,0.1,0.1,0.1,0.1,0.2c0.1,0,0.2,0,0.3,0h0.1v0.2h-1.8V28l-0.3,0.3
	c-0.1,0.1-0.2,0.2-0.4,0.3c-0.1,0.1-0.2,0.1-0.3,0.2l-0.3,0.1h-0.2c-0.2,0-0.4,0-0.5-0.1c-0.1-0.1-0.2-0.1-0.3-0.2
	c-0.1-0.1-0.1-0.2-0.2-0.3c0-0.1-0.1-0.3,0-0.4v-2.6c0-0.1,0-0.1,0-0.2c-0.1,0-0.1-0.1-0.2-0.1H83v-0.3h0.5h0.3l0.3,0l0.4-0.1
	l0.2-0.1L84.8,27.4z"/>
<path class="st6" d="M88.5,27.3h0.3c0,0.1,0,0.2,0.1,0.3c0,0.1,0.1,0.2,0.1,0.2c0.1,0.1,0.1,0.2,0.2,0.3c0.1,0.1,0.2,0.2,0.3,0.2
	c0.1,0.1,0.2,0.1,0.4,0.2c0.1,0,0.3,0,0.4,0c0.1,0,0.3,0,0.4-0.1c0.1-0.1,0.2-0.1,0.3-0.2c0.1-0.1,0.2-0.2,0.2-0.4
	c0-0.1,0-0.1-0.1-0.2c0-0.1-0.1-0.2-0.2-0.2c-0.1-0.1-0.3-0.2-0.4-0.2l-0.6-0.2l-0.4-0.2c-0.1-0.1-0.3-0.1-0.4-0.2
	c-0.1-0.1-0.3-0.2-0.3-0.4c-0.1-0.1-0.1-0.3-0.1-0.4c0-0.1,0-0.2,0-0.4c0-0.1,0.1-0.2,0.1-0.3c0.1-0.1,0.1-0.2,0.2-0.3
	c0.1-0.1,0.2-0.2,0.3-0.2c0.1-0.1,0.3-0.1,0.4-0.1H90h0.3h0.3l0.2,0.1l0.2,0.1c0.1,0,0.1,0,0.2,0c0,0,0.1-0.1,0.1-0.2l0.1-0.1h0.2
	v1.4h-0.2v-0.1c0,0,0-0.1,0-0.2c0-0.1,0-0.2-0.1-0.2c-0.1-0.1-0.1-0.2-0.2-0.2c-0.1-0.1-0.2-0.2-0.3-0.2c-0.1-0.1-0.3-0.1-0.4-0.1
	h-0.4c-0.1,0-0.2,0-0.4,0c-0.1,0-0.2,0.1-0.3,0.2c-0.1,0.1-0.1,0.2-0.1,0.3c0,0.1,0,0.2,0.1,0.3c0.1,0.1,0.2,0.2,0.4,0.2l0.6,0.2
	l0.6,0.2c0.2,0.1,0.3,0.2,0.5,0.3c0.2,0.1,0.3,0.2,0.4,0.4c0.1,0.1,0.1,0.3,0.1,0.4c0,0.1,0,0.2,0,0.2c0,0.1,0,0.2-0.1,0.2
	c-0.1,0.2-0.1,0.3-0.2,0.4c-0.1,0.2-0.3,0.3-0.5,0.4c-0.2,0.1-0.4,0.2-0.6,0.2h-0.3c-0.1,0-0.2,0-0.4,0c-0.1,0-0.2,0-0.4-0.1
	c-0.1,0-0.2-0.1-0.3-0.2l-0.3,0c-0.1-0.1-0.1-0.1-0.2-0.1c0,0,0,0.1-0.1,0.2l-0.1,0.3h-0.2L88.5,27.3z"/>
<path class="st6" d="M92.4,24.9v-0.3h1.1h0.4l0.3-0.1l0.2-0.1v3.7c0,0.2,0,0.3,0.1,0.3c0,0,0.1,0.1,0.1,0.1c0.1,0,0.1,0,0.2,0h0.3
	v0.3h-2.6v-0.3h0.3c0.1,0,0.2,0,0.3,0c0.1,0,0.1,0,0.1-0.1c0-0.1,0-0.2,0-0.3v-2.8c0-0.1,0-0.2,0-0.2c0-0.1-0.1-0.2-0.2-0.2h-0.2
	L92.4,24.9z M93.6,22.1c0.1,0,0.2,0,0.3,0.1c0.1,0.1,0.2,0.1,0.3,0.2c0.1,0.1,0.1,0.2,0.1,0.3c0,0.1,0,0.2-0.1,0.3
	c-0.1,0.1-0.2,0.2-0.3,0.3c-0.1,0.1-0.2,0.1-0.3,0.1c-0.1,0-0.2,0-0.3-0.1c-0.1-0.1-0.2-0.1-0.2-0.2c-0.1-0.1-0.1-0.2-0.1-0.4
	c0-0.1,0-0.2,0.1-0.3c0.1-0.1,0.1-0.2,0.3-0.2C93.4,22.1,93.5,22.1,93.6,22.1L93.6,22.1z"/>
<path class="st6" d="M98.1,28.5h0.2c0.1,0,0.1,0,0.2,0c0,0,0.1,0,0.1-0.1c0-0.1,0-0.2,0-0.3v-2.4c0-0.1,0-0.3-0.1-0.4
	c0-0.1-0.1-0.1-0.2-0.2c-0.1,0-0.2-0.1-0.2-0.1c-0.1,0-0.2,0-0.4,0.1c-0.1,0.1-0.2,0.1-0.3,0.3c-0.1,0.1-0.1,0.2-0.2,0.3L97.1,26
	v2.2c0,0.1,0,0.1,0,0.2c0,0,0,0.1,0.1,0.1c0.1,0,0.1,0,0.2,0h0.3v0.2h-2.2v-0.2h0.2c0.1,0,0.2,0,0.2,0c0,0,0.1-0.1,0.1-0.1
	c0-0.1,0-0.2,0-0.2v-2.8c0-0.1,0-0.2,0-0.3c0-0.1-0.1-0.1-0.1-0.1c-0.1,0-0.1,0-0.2,0h-0.2v-0.3H96h0.4c0.1,0,0.3,0,0.4-0.1l0.3-0.1
	v0.9l0.4-0.4c0.1-0.1,0.2-0.2,0.3-0.3c0.1-0.1,0.3-0.2,0.4-0.2c0.1,0,0.3-0.1,0.4-0.1c0.1,0,0.3,0,0.4,0.1c0.1,0,0.2,0.1,0.3,0.2
	c0.1,0.1,0.2,0.2,0.2,0.3c0.1,0.1,0.1,0.3,0.1,0.5v2.6c0,0.1,0,0.2,0,0.2c0,0.1,0,0.1,0.1,0.1c0.1,0,0.1,0,0.2,0h0.3v0.2h-2.1V28.5z
	"/>
<path class="st6" d="M101.9,26.4v0.4c0,0.1,0,0.3,0,0.4c0,0.1,0.1,0.3,0.1,0.4c0,0.1,0.1,0.3,0.2,0.4c0.1,0.1,0.2,0.2,0.4,0.3
	c0.1,0.1,0.3,0.1,0.5,0.1c0.1,0,0.2,0,0.3,0c0.1,0,0.2-0.1,0.3-0.1c0.1-0.1,0.2-0.1,0.3-0.2c0.1-0.1,0.2-0.1,0.2-0.2
	c0.1-0.1,0.1-0.1,0.2-0.2l0.1-0.2l0.1-0.1l0.3,0.2l-0.1,0.1c-0.1,0.2-0.2,0.3-0.4,0.5c-0.1,0.1-0.3,0.3-0.4,0.4
	c-0.1,0.1-0.3,0.2-0.5,0.2c-0.2,0-0.4,0.1-0.5,0.1c-0.2,0-0.3,0-0.5,0c-0.2,0-0.4-0.1-0.6-0.2c-0.2-0.1-0.4-0.2-0.5-0.3
	c-0.3-0.3-0.6-0.7-0.6-1.1c0-0.2-0.1-0.4-0.1-0.7c0-0.1,0-0.2,0-0.3c0-0.2,0.1-0.3,0.1-0.5c0.1-0.2,0.2-0.4,0.3-0.5
	c0.1-0.2,0.3-0.3,0.5-0.4c0.2-0.1,0.3-0.2,0.5-0.2c0.2,0,0.3,0,0.5,0c0.2,0,0.3,0,0.5,0c0.1,0,0.3,0.1,0.4,0.1
	c0.2,0.1,0.3,0.1,0.4,0.2c0.1,0.1,0.3,0.2,0.4,0.4c0.1,0.1,0.2,0.3,0.2,0.4c0,0.1,0.1,0.2,0.1,0.4v0.2v0.2L101.9,26.4z M103.7,26.1
	v-0.3c0-0.1,0-0.2,0-0.3c0-0.1-0.1-0.2-0.1-0.3c0-0.1-0.1-0.2-0.2-0.3c-0.1-0.1-0.2-0.1-0.2-0.2c-0.1,0-0.2-0.1-0.3-0.1
	c-0.1,0-0.3,0-0.4,0.1c-0.1,0-0.2,0.1-0.2,0.2c-0.1,0.1-0.1,0.2-0.2,0.3c-0.1,0.1-0.1,0.3-0.1,0.4c0,0.2,0,0.3,0,0.3v0.2L103.7,26.1
	z"/>
<path class="st6" d="M105.6,27.3h0.3c0,0.1,0,0.2,0.1,0.3c0,0.1,0.1,0.2,0.1,0.2c0.1,0.1,0.1,0.2,0.2,0.3c0.1,0.1,0.2,0.2,0.3,0.2
	c0.1,0.1,0.2,0.1,0.4,0.2c0.1,0,0.3,0,0.4,0c0.1,0,0.3,0,0.4-0.1c0.1-0.1,0.2-0.1,0.3-0.2c0.1-0.1,0.2-0.2,0.2-0.4
	c0-0.1-0.1-0.1-0.1-0.2c0-0.1-0.1-0.2-0.2-0.2c-0.1-0.1-0.3-0.2-0.4-0.2l-0.6-0.2l-0.4-0.2c-0.1-0.1-0.3-0.1-0.4-0.2
	c-0.1-0.1-0.3-0.2-0.3-0.4c-0.1-0.1-0.1-0.3-0.1-0.4c0-0.1,0-0.2,0-0.4c0-0.1,0.1-0.2,0.1-0.3c0.1-0.1,0.1-0.2,0.2-0.3
	c0.1-0.1,0.2-0.2,0.3-0.2c0.1-0.1,0.3-0.1,0.4-0.1h0.3h0.3h0.3l0.2,0.1l0.2,0.1c0.1,0,0.1,0,0.2,0c0,0,0.1-0.1,0.1-0.2l0.1-0.1h0.2
	v1.4h-0.2v-0.1c0,0,0-0.1,0-0.2c0-0.1,0-0.2-0.1-0.2c-0.1-0.1-0.1-0.2-0.2-0.2c-0.1-0.1-0.2-0.2-0.3-0.2c-0.1-0.1-0.3-0.1-0.4-0.1
	h-0.4c-0.1,0-0.2,0-0.4,0c-0.1,0-0.2,0.1-0.3,0.2c-0.1,0.1-0.1,0.2-0.1,0.3c0,0.1,0,0.2,0.1,0.3c0.1,0.1,0.2,0.2,0.4,0.2l0.6,0.2
	l0.6,0.2c0.2,0.1,0.3,0.2,0.5,0.3c0.2,0.1,0.3,0.2,0.4,0.4c0.1,0.1,0.1,0.3,0.1,0.4c0,0.1,0,0.2,0,0.2c0,0.1,0,0.2-0.1,0.2
	c-0.1,0.2-0.1,0.3-0.2,0.4c-0.1,0.2-0.3,0.3-0.5,0.4c-0.2,0.1-0.4,0.2-0.6,0.2h-0.3c-0.1,0-0.2,0-0.4,0c-0.1,0-0.2,0-0.4-0.1
	c-0.1,0-0.2-0.1-0.3-0.2l-0.3-0.2c-0.1-0.1-0.1-0.1-0.2-0.1c0,0,0,0.1-0.1,0.2l-0.1,0.3h-0.2L105.6,27.3z"/>
<path class="st6" d="M109.7,27.3h0.3c0,0.1,0.1,0.2,0.1,0.3c0,0.1,0.1,0.2,0.1,0.2c0.1,0.1,0.1,0.2,0.2,0.3c0.1,0.1,0.2,0.2,0.3,0.2
	c0.1,0.1,0.2,0.1,0.4,0.2c0.1,0,0.3,0,0.4,0c0.1,0,0.3,0,0.4-0.1c0.1-0.1,0.2-0.1,0.3-0.2c0.1-0.1,0.2-0.2,0.2-0.4
	c0-0.1,0-0.1-0.1-0.2c0-0.1-0.1-0.2-0.2-0.2c-0.1-0.1-0.3-0.2-0.4-0.2l-0.6-0.2l-0.4-0.2c-0.1-0.1-0.3-0.1-0.4-0.2
	c-0.1-0.1-0.3-0.2-0.3-0.4c-0.1-0.1-0.1-0.3-0.1-0.4c0-0.1,0-0.2,0-0.4c0-0.1,0.1-0.2,0.1-0.3c0.1-0.1,0.1-0.2,0.2-0.3
	c0.1-0.1,0.2-0.2,0.3-0.2c0.1-0.1,0.3-0.1,0.4-0.1h0.3h0.3h0.3l0.2,0.1l0.2,0.1c0.1,0,0.1,0,0.2,0c0,0,0.1-0.1,0.1-0.2l0.1-0.1h0.2
	v1.4h-0.2v-0.1c0,0,0-0.1,0-0.2c0-0.1,0-0.2-0.1-0.2c-0.1-0.1-0.1-0.2-0.2-0.2c-0.1-0.1-0.2-0.2-0.3-0.2c-0.1-0.1-0.3-0.1-0.4-0.1
	h-0.4c-0.1,0-0.2,0-0.4,0c-0.1,0-0.2,0.1-0.3,0.2c-0.1,0.1-0.1,0.2-0.1,0.3c0,0.1,0,0.2,0.1,0.3c0.1,0.1,0.2,0.3,0.3,0.4l0.6,0.2
	l0.6,0.2c0.2,0.1,0.3,0.2,0.5,0.3c0.2,0.1,0.3,0.2,0.4,0.4c0.1,0.1,0.1,0.3,0.1,0.4c0,0.1,0,0.2,0,0.2c0,0.1,0,0.2-0.1,0.2
	c-0.1,0.2-0.1,0.3-0.2,0.4c-0.1,0.2-0.3,0.3-0.5,0.4c-0.2,0.1-0.4,0.2-0.6,0.2h-0.3c-0.1,0-0.2,0-0.4,0c-0.1,0-0.2,0-0.4-0.1
	c-0.1,0-0.2-0.1-0.3-0.2l-0.3-0.2c-0.1-0.1-0.1-0.1-0.2-0.1c0,0,0,0.1-0.1,0.2l-0.1,0.3h-0.2L109.7,27.3z"/>
<path class="st6" d="M118.6,28.5h0.5c0.1,0,0.1,0,0.2-0.1c0.1-0.1,0.1-0.1,0.1-0.2c0-0.1,0-0.2,0-0.3v-5c0-0.1,0-0.2,0-0.3
	c0,0,0-0.1-0.1-0.1c0,0-0.1-0.1-0.1-0.1c-0.1,0-0.2,0-0.2,0h-0.3V22h2.9v0.3h-0.3c-0.1,0-0.2,0-0.3,0c0,0-0.1,0-0.1,0.1
	c0,0-0.1,0.1-0.1,0.1c0,0.1,0,0.2,0,0.2v5c0,0.1,0,0.2,0,0.3c0,0.2,0.2,0.3,0.3,0.3h0.5v0.3h-3L118.6,28.5z"/>
<path class="st6" d="M124.7,28.5h0.2c0.1,0,0.1,0,0.2,0c0,0,0.1,0,0.1-0.1c0-0.1,0-0.2,0-0.3v-2.4c0-0.1,0-0.3-0.1-0.4
	c0-0.1-0.1-0.1-0.2-0.2c-0.1,0-0.2-0.1-0.2-0.1c-0.1,0-0.2,0-0.4,0.1c-0.1,0.1-0.2,0.1-0.3,0.3c-0.1,0.1-0.1,0.2-0.2,0.3l-0.1,0.2
	v2.2c0,0.1,0,0.1,0,0.2c0,0,0,0.1,0.1,0.1c0.1,0,0.1,0,0.2,0h0.2v0.2h-2.3v-0.2h0.2c0.1,0,0.2,0,0.2,0c0,0,0.1-0.1,0.1-0.1
	c0-0.1,0-0.2,0-0.2v-2.8c0-0.1,0-0.2,0-0.3c0-0.1-0.1-0.1-0.1-0.1c-0.1,0-0.1,0-0.2,0h-0.2v-0.3h0.7h0.4c0.1,0,0.3,0,0.4-0.1
	l0.3-0.1v0.9L124,25c0.1-0.1,0.3-0.2,0.5-0.3c0.1-0.1,0.3-0.2,0.4-0.2c0.1,0,0.3-0.1,0.4-0.1c0.1,0,0.3,0,0.4,0.1
	c0.1,0,0.2,0.1,0.3,0.2c0.1,0.1,0.2,0.2,0.2,0.3c0.1,0.1,0.1,0.3,0.1,0.5v2.6c0,0.1,0,0.2,0,0.2c0,0.1,0,0.1,0,0.2
	c0.1,0,0.1,0,0.2,0h0.3v0.2h-2.2L124.7,28.5z"/>
<path class="st6" d="M129.3,22.2v2.1h1v0.3h-1v3c0,0.1,0,0.2,0.1,0.3c0,0.1,0.1,0.1,0.2,0.1c0.1,0,0.1,0,0.2,0
	c0.1,0,0.2-0.1,0.2-0.2c0.1-0.1,0.1-0.2,0.2-0.3l0.1-0.1l0.2,0.2l-0.1,0.1l-0.2,0.2c-0.1,0.1-0.2,0.2-0.3,0.3
	c-0.1,0.1-0.3,0.2-0.4,0.3c-0.2,0.1-0.4,0.1-0.6,0.1c-0.1,0-0.3,0-0.4-0.1c-0.1,0-0.2-0.1-0.3-0.2c-0.1-0.1-0.1-0.2-0.2-0.3
	c0-0.1,0-0.3,0-0.4v-3.1h-0.8v-0.3l0.3,0c0.1,0,0.2-0.1,0.2-0.1c0.1-0.1,0.2-0.2,0.2-0.3c0.1-0.1,0.1-0.2,0.2-0.3
	c0.1-0.1,0.1-0.3,0.1-0.4c0-0.2,0.1-0.3,0.1-0.5v-0.4L129.3,22.2z"/>
<path class="st6" d="M132.2,26.4v0.4c0,0.1,0,0.3,0,0.4c0,0.1,0.1,0.3,0.1,0.4c0,0.1,0.1,0.3,0.2,0.4c0.1,0.1,0.2,0.2,0.4,0.3
	c0.1,0.1,0.3,0.1,0.5,0.1c0.1,0,0.2,0,0.3,0c0.1,0,0.2-0.1,0.3-0.1c0.1-0.1,0.2-0.1,0.3-0.2c0.1-0.1,0.2-0.1,0.2-0.2
	c0.1-0.1,0.1-0.1,0.2-0.2l0.1-0.2l0.1-0.1l0.3,0.2l-0.1,0.1c-0.1,0.2-0.2,0.3-0.4,0.5c-0.1,0.1-0.3,0.3-0.4,0.4
	c-0.1,0.1-0.3,0.2-0.5,0.2c-0.2,0-0.4,0.1-0.5,0.1c-0.2,0-0.3,0-0.5,0c-0.2,0-0.4-0.1-0.6-0.2c-0.2-0.1-0.4-0.2-0.5-0.3
	c-0.3-0.3-0.6-0.7-0.6-1.1c0-0.2-0.1-0.4-0.1-0.7c0-0.1,0-0.2,0-0.3c0-0.2,0.1-0.3,0.1-0.5c0.1-0.2,0.2-0.4,0.3-0.5
	c0.1-0.2,0.3-0.3,0.5-0.4c0.2-0.1,0.3-0.2,0.5-0.2c0.2,0,0.3,0,0.5,0c0.2,0,0.3,0,0.5,0c0.1,0,0.3,0.1,0.4,0.1
	c0.2,0.1,0.3,0.1,0.4,0.2c0.1,0.1,0.3,0.2,0.4,0.4c0.1,0.1,0.2,0.3,0.2,0.4c0,0.1,0.1,0.2,0.1,0.4v0.2v0.2L132.2,26.4z M133.9,26.1
	v-0.3c0-0.1,0-0.2,0-0.3c0-0.1-0.1-0.2-0.1-0.3c0-0.1-0.1-0.2-0.2-0.3c-0.1-0.1-0.2-0.1-0.2-0.2c-0.1,0-0.2-0.1-0.3-0.1
	c-0.1,0-0.2,0-0.3,0c-0.1,0-0.2,0.1-0.2,0.2c-0.1,0.1-0.1,0.2-0.2,0.3c-0.1,0.1-0.1,0.3-0.1,0.4c0,0.2,0,0.3,0,0.3V26L133.9,26.1z"
	/>
<path class="st6" d="M135.8,22.3h0.9l0.3-0.1l0.3-0.1l0.2-0.1l0.2-0.1v5.8c0,0.1,0,0.2,0,0.3c0,0.1,0,0.1,0.1,0.2
	c0.1,0.1,0.2,0.1,0.3,0.1h0.2v0.3h-2.5v-0.3h0.2c0.1,0,0.2,0,0.3,0c0.1,0,0.1-0.1,0.1-0.1c0-0.1,0-0.2,0-0.4v-4.8c0-0.1,0-0.2,0-0.3
	c0,0-0.1-0.1-0.1-0.1c-0.1,0-0.1,0-0.2,0h-0.3L135.8,22.3z"/>
<path class="st6" d="M138.8,22.3h0.9l0.3-0.1l0.3-0.1l0.2-0.1l0.2-0.1v5.8c0,0.1,0,0.2,0,0.3c0,0.1,0,0.1,0.1,0.2
	c0.1,0.1,0.2,0.1,0.3,0.1h0.2v0.3h-2.5v-0.3h0.2c0.1,0,0.2,0,0.3,0c0.1,0,0.1-0.1,0.1-0.1c0-0.1,0-0.2,0-0.4v-4.8c0-0.1,0-0.2,0-0.3
	c0,0-0.1-0.1-0.1-0.1c-0.1,0-0.1,0-0.2,0h-0.3V22.3z"/>
<path class="st6" d="M141.8,24.9v-0.3h1.1h0.4l0.3-0.1l0.2-0.1v3.7c0,0.2,0,0.3,0.1,0.3c0,0,0.1,0.1,0.1,0.1c0.1,0,0.1,0,0.2,0h0.3
	v0.3h-2.7v-0.3h0.3c0.1,0,0.2,0,0.3,0c0.1,0,0.1,0,0.1-0.1c0-0.1,0-0.2,0-0.3v-2.8c0-0.1,0-0.2,0-0.2c0-0.1-0.1-0.2-0.2-0.2H142
	L141.8,24.9z M143,22.1c0.1,0,0.2,0,0.3,0.1c0.1,0.1,0.2,0.1,0.3,0.2c0,0.1,0.1,0.2,0,0.3c0,0.1,0,0.2-0.1,0.3
	c-0.1,0.1-0.2,0.2-0.3,0.3c-0.1,0.1-0.2,0.1-0.3,0.1c-0.1,0-0.2,0-0.3-0.1c-0.1-0.1-0.2-0.1-0.2-0.2c-0.1-0.1-0.1-0.2-0.1-0.4
	c0-0.1,0-0.2,0.1-0.3c0.1-0.1,0.1-0.2,0.3-0.2C142.7,22.1,142.8,22.1,143,22.1L143,22.1z"/>
<path class="st6" d="M148.3,24.7l0.2-0.2c0.1-0.1,0.2-0.2,0.3-0.2c0.1-0.1,0.2-0.1,0.3-0.1c0.1,0,0.3,0.1,0.4,0.2
	c0.1,0.1,0.1,0.2,0.1,0.3c0,0.1,0,0.2-0.1,0.3c-0.1,0.1-0.2,0.1-0.3,0.1c0,0-0.1,0-0.1,0c0,0-0.1,0-0.1-0.1l-0.1-0.2
	c0,0-0.1-0.1-0.1-0.1c-0.1,0-0.1,0.1-0.1,0.1c0,0-0.1,0.1-0.1,0.1V25l0.1,0.2c0.1,0.1,0.1,0.2,0.1,0.3c0,0.1,0.1,0.2,0.1,0.4
	c0,0.1,0,0.3-0.1,0.4c0,0.2-0.1,0.3-0.2,0.5c-0.1,0.2-0.2,0.3-0.4,0.4c-0.1,0.1-0.2,0.1-0.3,0.1h-0.4H147h-0.2l-0.2,0
	c-0.1,0-0.2,0.1-0.2,0.1c0,0,0,0.1,0,0.1c0,0,0.1,0.1,0.1,0.1c0.1,0,0.2,0.1,0.3,0.1h0.7h0.7c0.1,0,0.3,0.1,0.4,0.1
	c0.2,0.1,0.3,0.2,0.5,0.3c0.2,0.1,0.2,0.4,0.2,0.6c0,0.2-0.1,0.5-0.2,0.7c-0.1,0.2-0.2,0.3-0.4,0.4c-0.1,0.1-0.3,0.2-0.4,0.2
	c-0.2,0.1-0.3,0.1-0.5,0.1c-0.2,0-0.4,0-0.6,0h-0.4l-0.5-0.1c-0.1,0-0.3-0.1-0.4-0.1c-0.1-0.1-0.3-0.1-0.4-0.2
	c-0.1-0.1-0.2-0.1-0.3-0.2c-0.1-0.1-0.1-0.2-0.1-0.3c0-0.1,0-0.2,0.1-0.3c0.1-0.1,0.1-0.2,0.2-0.2c0.1-0.1,0.2-0.2,0.3-0.2l0.3-0.1
	l-0.4,0.1l-0.2-0.1c-0.1,0-0.1-0.1-0.1-0.1c-0.1-0.1-0.1-0.2-0.1-0.2c0-0.1,0-0.2,0.1-0.3c0.1-0.1,0.2-0.2,0.3-0.3
	c0.1-0.1,0.3-0.2,0.5-0.2l0.2-0.1l-0.3-0.1l-0.2-0.1c-0.1,0-0.1-0.1-0.2-0.2c-0.1-0.1-0.2-0.2-0.2-0.3c-0.1-0.1-0.1-0.2-0.1-0.3
	v-0.1v-0.2c0-0.1,0-0.1,0-0.2c0-0.1,0-0.2,0-0.3c0-0.1,0.1-0.2,0.1-0.3c0.1-0.1,0.2-0.2,0.3-0.3c0.1-0.1,0.3-0.2,0.4-0.2
	c0.1-0.1,0.3-0.1,0.5-0.1h0.4h0.3l0.4,0.1c0.1,0,0.2,0.1,0.4,0.1l0.2,0.2L148.3,24.7z M146.3,29.9l0.4,0.1c0.2,0,0.3,0,0.5,0
	c0.1,0,0.3,0,0.4,0c0.1,0,0.3-0.1,0.4-0.1c0.1,0,0.2-0.1,0.3-0.2c0.1-0.1,0.1-0.2,0.1-0.3c0-0.1,0-0.2-0.1-0.3
	c-0.1-0.1-0.1-0.1-0.2-0.2c-0.1,0-0.2-0.1-0.3-0.1h-0.5H147h-0.6c-0.1,0-0.3,0-0.4,0c-0.1,0-0.2,0.1-0.3,0.2
	c-0.1,0.1-0.1,0.2-0.1,0.3c0,0.1,0,0.2,0,0.2c0,0.1,0.1,0.1,0.2,0.2l0.3,0.1L146.3,29.9z M147.7,25.8c0-0.1,0-0.2,0-0.3
	c0-0.1,0-0.2,0-0.3c0-0.1-0.1-0.1-0.1-0.2c-0.1-0.1-0.1-0.1-0.2-0.1c-0.1,0-0.2,0-0.2,0c-0.1,0-0.3,0-0.4,0.1
	c-0.1,0.1-0.1,0.1-0.2,0.2c0,0.1-0.1,0.2-0.1,0.3c0,0.1,0,0.3,0,0.4c0,0.1,0,0.2,0,0.4c0,0.1,0,0.3,0.1,0.4c0,0.1,0.1,0.2,0.2,0.3
	c0.1,0.1,0.2,0.1,0.4,0.1c0.1,0,0.3,0,0.4-0.1c0.1-0.1,0.2-0.3,0.2-0.5C147.7,26.2,147.7,26,147.7,25.8L147.7,25.8z"/>
<path class="st6" d="M151.5,26.4v0.4c0,0.1,0,0.3,0,0.4c0,0.1,0.1,0.3,0.1,0.4c0,0.1,0.1,0.3,0.2,0.4c0.1,0.1,0.2,0.2,0.4,0.3
	c0.1,0.1,0.3,0.1,0.5,0.1c0.1,0,0.2,0,0.3,0c0.1,0,0.2-0.1,0.3-0.1c0.1-0.1,0.2-0.1,0.3-0.2c0.1-0.1,0.2-0.1,0.2-0.2
	c0.1-0.1,0.1-0.1,0.2-0.2l0.1-0.2l0.1-0.1l0.3,0.2l-0.1,0.1c-0.1,0.2-0.2,0.3-0.4,0.5c-0.1,0.1-0.3,0.3-0.4,0.4
	c-0.1,0.1-0.3,0.2-0.5,0.2c-0.2,0-0.4,0.1-0.5,0.1c-0.2,0-0.3,0-0.5,0c-0.2,0-0.4-0.1-0.6-0.2c-0.2-0.1-0.4-0.2-0.5-0.3
	c-0.3-0.3-0.6-0.7-0.6-1.1c0-0.2-0.1-0.4-0.1-0.7c0-0.1,0-0.2,0-0.3c0-0.2,0.1-0.3,0.1-0.5c0.1-0.2,0.2-0.4,0.3-0.5
	c0.1-0.2,0.3-0.3,0.5-0.4c0.2-0.1,0.3-0.2,0.5-0.2c0.2,0,0.3,0,0.5,0c0.2,0,0.3,0,0.5,0c0.1,0,0.3,0.1,0.4,0.1
	c0.2,0.1,0.3,0.1,0.4,0.2c0.1,0.1,0.3,0.2,0.4,0.4c0.1,0.1,0.2,0.3,0.2,0.4c0,0.1,0.1,0.2,0.1,0.4v0.2v0.2L151.5,26.4z M153.3,26.1
	v-0.3c0-0.1,0-0.2,0-0.3c0-0.1-0.1-0.2-0.1-0.3c0-0.1-0.1-0.2-0.2-0.3c-0.1-0.1-0.2-0.1-0.2-0.2c-0.1,0-0.2-0.1-0.3-0.1
	c-0.1,0-0.2,0-0.3,0c-0.1,0-0.2,0.1-0.2,0.2c-0.1,0.1-0.1,0.2-0.2,0.3c-0.1,0.1-0.1,0.3-0.1,0.4c0,0.2,0,0.3,0,0.3V26L153.3,26.1z"
	/>
<path class="st6" d="M157.7,28.5h0.2c0.1,0,0.1,0,0.2,0c0,0,0.1,0,0.1-0.1c0-0.1,0-0.2,0-0.3v-2.4c0-0.1,0-0.3-0.1-0.4
	c0-0.1-0.1-0.1-0.2-0.2c-0.1,0-0.2-0.1-0.2-0.1c-0.1,0-0.2,0-0.4,0.1c-0.1,0.1-0.2,0.1-0.3,0.3c-0.1,0.1-0.1,0.2-0.2,0.3l-0.1,0.2
	v2.2c0,0.1,0,0.1,0,0.2c0,0,0,0.1,0.1,0.1c0.1,0,0.1,0,0.2,0h0.2v0.2h-2.3v-0.2h0.2c0.1,0,0.2,0,0.2,0c0,0,0.1-0.1,0.1-0.1
	c0-0.1,0-0.2,0-0.2v-2.8c0-0.1,0-0.2,0-0.3c0-0.1-0.1-0.1-0.1-0.1c-0.1,0-0.1,0-0.2,0h-0.2v-0.3h0.7h0.4c0.1,0,0.3,0,0.4-0.1
	l0.3-0.1v0.9L157,25c0.1-0.1,0.2-0.2,0.3-0.3c0.1-0.1,0.3-0.2,0.4-0.2c0.1,0,0.3-0.1,0.4-0.1c0.1,0,0.3,0,0.4,0.1
	c0.1,0,0.2,0.1,0.3,0.2c0.1,0.1,0.2,0.2,0.2,0.3c0.1,0.1,0.1,0.3,0.1,0.5v2.6c0,0.1,0,0.2,0,0.2c0,0.1,0,0.1,0.1,0.1
	c0.1,0,0.1,0,0.2,0h0.4v0.2h-2.2L157.7,28.5z"/>
<path class="st6" d="M164.1,27.8L164.1,27.8l-0.1,0.3c-0.1,0.1-0.2,0.2-0.2,0.3c-0.1,0.1-0.2,0.2-0.4,0.3c-0.1,0.1-0.3,0.2-0.4,0.2
	c-0.1,0-0.3,0-0.4,0c-0.2,0-0.4,0-0.6-0.1c-0.2-0.1-0.4-0.2-0.6-0.4c-0.2-0.2-0.4-0.4-0.5-0.6c-0.1-0.2-0.2-0.4-0.2-0.6
	c0-0.2-0.1-0.4-0.1-0.6c0-0.2,0-0.3,0-0.5c0-0.2,0.1-0.4,0.1-0.6c0.1-0.2,0.2-0.4,0.3-0.5c0.1-0.2,0.3-0.3,0.4-0.4
	c0.2-0.1,0.3-0.2,0.5-0.2c0.2,0,0.4-0.1,0.6-0.1c0.2,0,0.3,0,0.5,0c0.1,0,0.3,0.1,0.4,0.2c0.2,0.1,0.3,0.2,0.4,0.3
	c0.1,0.2,0.2,0.4,0.2,0.6c0,0.2-0.1,0.4-0.2,0.5c-0.1,0.1-0.3,0.2-0.4,0.2c-0.1,0-0.2,0-0.3-0.1c-0.1-0.1-0.1-0.2-0.2-0.3
	c0-0.1,0-0.2,0-0.3c0-0.1,0-0.1,0-0.2c0-0.1,0.1-0.1,0.1-0.2L163,25c0,0,0,0,0-0.1c0,0,0-0.1,0-0.1c0,0,0-0.1,0-0.1
	c-0.1-0.1-0.1-0.1-0.2-0.1c-0.1,0-0.1,0-0.2,0l-0.3,0.1c-0.1,0-0.2,0.1-0.3,0.2c-0.1,0.1-0.2,0.2-0.2,0.4c0,0.1-0.1,0.3-0.1,0.4
	c0,0.2,0,0.4,0,0.5c0,0.2,0,0.3,0,0.5s0,0.3,0,0.5c0,0.2,0.1,0.4,0.2,0.6c0.1,0.2,0.2,0.4,0.4,0.5c0.1,0.1,0.3,0.1,0.5,0.1
	c0.2,0,0.3,0,0.4-0.1c0.2-0.1,0.4-0.3,0.5-0.5l0.1-0.2L164.1,27.8z"/>
<path class="st6" d="M166,26.4v0.4c0,0.1,0,0.3,0,0.4c0,0.1,0.1,0.3,0.1,0.4c0,0.1,0.1,0.3,0.2,0.4c0.1,0.1,0.2,0.2,0.4,0.3
	c0.1,0.1,0.3,0.1,0.5,0.1c0.1,0,0.2,0,0.3,0c0.1,0,0.2-0.1,0.3-0.1c0.1-0.1,0.2-0.1,0.3-0.2c0.1-0.1,0.2-0.1,0.2-0.2
	c0.1-0.1,0.1-0.1,0.2-0.2l0.1-0.2l0.1-0.1l0.3,0.2l-0.1,0.1c-0.1,0.2-0.2,0.3-0.4,0.5c-0.1,0.1-0.3,0.3-0.4,0.4
	c-0.1,0.1-0.3,0.2-0.5,0.2c-0.2,0-0.4,0.1-0.5,0.1c-0.2,0-0.3,0-0.5,0c-0.2,0-0.4-0.1-0.6-0.2c-0.2-0.1-0.4-0.2-0.5-0.3
	c-0.3-0.3-0.6-0.7-0.6-1.1c0-0.2-0.1-0.4-0.1-0.7c0-0.1,0-0.2,0-0.3c0-0.2,0.1-0.3,0.1-0.5c0.1-0.2,0.2-0.4,0.3-0.5
	c0.1-0.2,0.3-0.3,0.5-0.4c0.2-0.1,0.3-0.2,0.5-0.2c0.2,0,0.3,0,0.5,0c0.2,0,0.3,0,0.5,0c0.1,0,0.3,0.1,0.4,0.1
	c0.2,0.1,0.3,0.1,0.4,0.2c0.1,0.1,0.3,0.2,0.4,0.4c0.1,0.1,0.2,0.3,0.2,0.4c0,0.1,0.1,0.2,0.1,0.4v0.2v0.2L166,26.4z M167.8,26.1
	v-0.3c0-0.1,0-0.2,0-0.3c0-0.1-0.1-0.2-0.1-0.3c0-0.1-0.1-0.2-0.2-0.3c-0.1-0.1-0.2-0.1-0.2-0.2c-0.1,0-0.2-0.1-0.3-0.1
	c-0.1,0-0.2,0-0.3,0c-0.1,0-0.2,0.1-0.2,0.2c-0.1,0.1-0.1,0.2-0.2,0.3c-0.1,0.1-0.1,0.3-0.1,0.4c0,0.2,0,0.3,0,0.3V26L167.8,26.1z"
	/>
</svg>
