<svg xmlns="http://www.w3.org/2000/svg" xmlns:xlink="http://www.w3.org/1999/xlink" viewBox="0 0 173.11 34.65"><defs><style>.cls-1,.cls-6{fill:none;}.cls-10,.cls-2,.cls-9{fill:#fff;}.cls-3{fill:#0b2c6b;}.cls-4{fill:#f2f2f2;}.cls-5{clip-path:url(#clip-path);}.cls-6{stroke:#0b2c6b;stroke-miterlimit:10;stroke-width:2px;}.cls-7{fill:#e53630;}.cls-10,.cls-8,.cls-9{isolation:isolate;}.cls-9{font-size:7.17px;letter-spacing:0.02em;}.cls-10,.cls-9{font-family:AdobeKaitiStd-Regular-GBpc-EUC-H, Adobe Kaiti Std;}.cls-10{font-size:5px;letter-spacing:0.02em;}</style><clipPath id="clip-path"><path class="cls-1" d="M48.71,4.48a25.08,25.08,0,0,0-6.79-2.76A29.11,29.11,0,0,0,34.61.83a28.8,28.8,0,0,0-8.8,1.42,23.77,23.77,0,0,0-6.65,3.37c-4.09,3-6.62,7.17-6.59,11.77,0,4.15,2.15,7.91,5.59,10.78a23.08,23.08,0,0,0,7.66,4.12,28.74,28.74,0,0,0,9,1.36,29,29,0,0,0,7.78-1.11A23.72,23.72,0,0,0,51,28.3c3.66-3,5.91-6.89,5.88-11.2C56.84,12,53.66,7.45,48.71,4.48Z"/></clipPath></defs><title>资源 1</title><g id="图层_2" data-name="图层 2"><g id="图层_1-2" data-name="图层 1"><g id="图层_2-2" data-name="图层 2"><g id="图层_1-2-2" data-name="图层 1-2"><path class="cls-2" d="M66.15,22,51.71,27.68l-1.3-8s5.65-3.39,6.46-2.42c.51.61,9,2.82,9,2.82Z"/><path class="cls-3" d="M51.44,28.16,50,19.49l.2-.12s1.44-.86,3-1.59c2.9-1.39,3.63-1.14,3.95-.76s4.77,1.66,8.78,2.71l.22.06.41,2.44Zm-.65-8.32L52,27.2l13.77-5.41-.24-1.44c-2.68-.7-8.41-2.27-8.92-2.88,0,0-.41-.36-3.11.94C52.33,19,51.23,19.59,50.79,19.84Z"/><path class="cls-4" d="M48.71,4.48a25.08,25.08,0,0,0-6.79-2.76A29.11,29.11,0,0,0,34.61.83a28.8,28.8,0,0,0-8.8,1.42,23.77,23.77,0,0,0-6.65,3.37c-4.09,3-6.62,7.17-6.59,11.77,0,4.15,2.15,7.91,5.59,10.78a23.08,23.08,0,0,0,7.66,4.12,28.74,28.74,0,0,0,9,1.36,29,29,0,0,0,7.78-1.11A23.72,23.72,0,0,0,51,28.3c3.66-3,5.91-6.89,5.88-11.2C56.84,12,53.66,7.45,48.71,4.48Z"/><path class="cls-3" d="M34.57,34a29,29,0,0,1-8.85-1.38,23.59,23.59,0,0,1-7.78-4.18c-3.66-3-5.69-7-5.72-11,0-4.56,2.36-8.84,6.73-12A24.08,24.08,0,0,1,25.7,1.92,29.11,29.11,0,0,1,34.61.49a29.4,29.4,0,0,1,7.4.89,25.41,25.41,0,0,1,6.88,2.8h0c5.26,3.16,8.29,7.87,8.33,12.92,0,4.25-2.11,8.33-6,11.48a24.21,24.21,0,0,1-8.5,4.3A29.34,29.34,0,0,1,34.83,34Zm.24-32.81h-.2a28.42,28.42,0,0,0-8.7,1.4A23.39,23.39,0,0,0,19.37,5.9C15.18,9,12.89,13.05,12.92,17.38c0,3.87,2,7.6,5.47,10.51A22.88,22.88,0,0,0,25.93,32a28.3,28.3,0,0,0,8.89,1.34,28.65,28.65,0,0,0,7.69-1.1A23.51,23.51,0,0,0,50.77,28c3.73-3,5.77-6.89,5.75-10.93,0-4.8-2.94-9.29-8-12.32a24.72,24.72,0,0,0-6.69-2.72A28.79,28.79,0,0,0,34.81,1.18Z"/><g class="cls-5"><path class="cls-3" d="M18.66,29l-.1-.08A15.38,15.38,0,0,1,13,17.48c0-4.7,2.3-9.11,6.55-12.43L19.64,5l.09.07a17.84,17.84,0,0,0,4,2.38l.14.06-.07.13a20,20,0,0,0-2.42,9.8,20.23,20.23,0,0,0,1.79,8.3l.06.12-.12.06a16.8,16.8,0,0,0-4.35,3Zm1-23.62c-4.13,3.26-6.39,7.57-6.36,12.15a15.08,15.08,0,0,0,5.38,11.1,17.08,17.08,0,0,1,4.21-2.86,20.5,20.5,0,0,1-1.76-8.29,20.31,20.31,0,0,1,2.38-9.8A18.12,18.12,0,0,1,19.64,5.33Z"/><path class="cls-3" d="M51,29.1,51,29a11.89,11.89,0,0,0-4-3.06l-.12-.06.05-.12a20.46,20.46,0,0,0,1.78-8.52h0A19.88,19.88,0,0,0,45.49,6.48l-.08-.12.12-.07a18.75,18.75,0,0,0,3.19-2.43l.08-.07.09.06C54,7.11,57,12,57,17.17A15.52,15.52,0,0,1,51.16,29Zm-3.9-3.36a12.19,12.19,0,0,1,3.93,3,15.21,15.21,0,0,0,5.65-11.54c0-5.07-2.91-9.82-7.9-13a19,19,0,0,1-3,2.31,20.2,20.2,0,0,1,3.1,10.78A20.74,20.74,0,0,1,47.15,25.74Z"/><path class="cls-3" d="M45.56,6.59l-.07-.11a14.67,14.67,0,0,0-4.38-4.36L40.95,2l.15-.12A6.8,6.8,0,0,0,42,1l.06-.07.09,0a24.09,24.09,0,0,1,6.74,2.91l.15.1-.13.12a19,19,0,0,1-3.24,2.46ZM41.41,2a14.93,14.93,0,0,1,4.23,4.23A18.76,18.76,0,0,0,48.59,4a23.81,23.81,0,0,0-6.43-2.76A7.09,7.09,0,0,1,41.41,2Z"/><path class="cls-3" d="M23.74,7.73l-.12,0a18.12,18.12,0,0,1-4.07-2.42l-.14-.11L19.56,5a23.08,23.08,0,0,1,6.6-3.55l.09,0,.06.07a6.18,6.18,0,0,0,1.42,1.14l.17.1-.16.13A15.5,15.5,0,0,0,23.8,7.62ZM19.87,5.15a17.85,17.85,0,0,0,3.75,2.22,15.77,15.77,0,0,1,3.8-4.56,6.45,6.45,0,0,1-1.25-1A22.8,22.8,0,0,0,19.87,5.15Z"/><path class="cls-3" d="M42.73,33.5l-.05-.1a3.48,3.48,0,0,0-.9-1.07l-.14-.11.15-.11a15.82,15.82,0,0,0,5.06-6.36l.06-.13.13.06a12.21,12.21,0,0,1,4.14,3.13l.09.11-.1.09a23.39,23.39,0,0,1-8.32,4.46Zm-.64-1.27a3.75,3.75,0,0,1,.77.94,23.13,23.13,0,0,0,8-4.29A12,12,0,0,0,47,26,16.12,16.12,0,0,1,42.09,32.23Z"/><path class="cls-3" d="M26.27,33.24l-.08,0a22.38,22.38,0,0,1-7.61-4.34l-.11-.1.11-.11a17,17,0,0,1,4.42-3l.13-.06.06.13a16.17,16.17,0,0,0,4.64,6l.16.13-.18.1a6.37,6.37,0,0,0-1.48,1.18Zm-7.4-4.48a22.1,22.1,0,0,0,7.32,4.16,6.64,6.64,0,0,1,1.3-1.06A16.48,16.48,0,0,1,23,26,16.76,16.76,0,0,0,18.87,28.76Z"/><path class="cls-3" d="M34.87,34.65a26.94,26.94,0,0,1-8.69-1.44l-.2-.07.15-.16a6.64,6.64,0,0,1,1.54-1.23l.14.24a6.36,6.36,0,0,0-1.33,1,26.7,26.7,0,0,0,8.63,1.35v.28Z"/><path class="cls-3" d="M35.11,34.65v-.28a26.94,26.94,0,0,0,7.48-1.11,3.48,3.48,0,0,0-.81-.92l.17-.22a3.75,3.75,0,0,1,1,1.15l.08.15-.16,0A27.23,27.23,0,0,1,35.11,34.65Z"/><path class="cls-3" d="M27.59,2.91a6.45,6.45,0,0,1-1.49-1.2L26,1.56l.2-.07A27,27,0,0,1,34.9,0V.28a26.75,26.75,0,0,0-8.44,1.41,6.17,6.17,0,0,0,1.27,1Z"/><path class="cls-3" d="M41.27,2.11l-.18-.21a6.81,6.81,0,0,0,.77-.75,27.05,27.05,0,0,0-7-.87V0a27.42,27.42,0,0,1,7.26.93l.21.06-.14.17A7.08,7.08,0,0,1,41.27,2.11Z"/><path class="cls-3" d="M23,26l-.06-.13a20.5,20.5,0,0,1-1.82-8.41,20.28,20.28,0,0,1,2.45-9.94l.06-.11.12,0a23.82,23.82,0,0,0,4.86,1.5l.14,0,0,.14a36.65,36.65,0,0,0-.85,8.28h0a38.11,38.11,0,0,0,.61,6.57l0,.13-.13,0a23.4,23.4,0,0,0-5.24,1.79Zm.76-18.24a20,20,0,0,0-2.36,9.69,20.22,20.22,0,0,0,1.73,8.17,23.67,23.67,0,0,1,5-1.73,38.4,38.4,0,0,1-.59-6.49,36.92,36.92,0,0,1,.83-8.2A24.1,24.1,0,0,1,23.74,7.73Z"/><path class="cls-3" d="M47,26l-.13-.06a22.44,22.44,0,0,0-5.2-1.73l-.13,0,0-.13a38,38,0,0,0,.55-6.77h0A36,36,0,0,0,41,8.47l0-.13.12,0a21.33,21.33,0,0,0,4.38-2l.11-.07.07.11a20.2,20.2,0,0,1,3.18,10.9,20.74,20.74,0,0,1-1.8,8.64ZM41.9,24a22.72,22.72,0,0,1,5,1.67,20.46,20.46,0,0,0,1.72-8.39A20,20,0,0,0,45.55,6.59a21.61,21.61,0,0,1-4.2,1.94,36.29,36.29,0,0,1,1.08,8.74A38.25,38.25,0,0,1,41.9,24Z"/><path class="cls-3" d="M41.09,8.62l0-.14a19.51,19.51,0,0,0-2-5.12l-.08-.13.14-.06a9.25,9.25,0,0,0,2-1.27l.08-.06.09.06a14.94,14.94,0,0,1,4.46,4.45l.08.12-.12.07a21.61,21.61,0,0,1-4.44,2.05ZM39.33,3.35a19.85,19.85,0,0,1,2,4.92,21.35,21.35,0,0,0,4.12-1.9,14.66,14.66,0,0,0-4.21-4.19A9.52,9.52,0,0,1,39.33,3.35Z"/><path class="cls-3" d="M28.68,9.23l-.13,0a24.09,24.09,0,0,1-4.92-1.52l-.14-.06.07-.13a15.78,15.78,0,0,1,4-4.8l.07-.06.08,0a10.31,10.31,0,0,0,2.69,1.1l.17,0L30.51,4a21.27,21.27,0,0,0-1.8,5.12Zm-4.8-1.74A23.82,23.82,0,0,0,28.47,8.9,21.66,21.66,0,0,1,30.19,4a10.59,10.59,0,0,1-2.51-1A15.5,15.5,0,0,0,23.88,7.48Z"/><path class="cls-3" d="M41.86,32.4l-.08-.06a7.19,7.19,0,0,0-2.35-1.21l-.16,0,.08-.15A22.65,22.65,0,0,0,41.61,24l0-.14.14,0A22.72,22.72,0,0,1,47,25.68l.12.06-.06.12a16.06,16.06,0,0,1-5.15,6.48Zm-2.18-1.48a7.46,7.46,0,0,1,2.19,1.14,15.78,15.78,0,0,0,4.92-6.18,22.44,22.44,0,0,0-4.93-1.65A23.05,23.05,0,0,1,39.68,30.92Z"/><path class="cls-3" d="M27.72,32,27.64,32a16.41,16.41,0,0,1-4.72-6.15l-.06-.12.12-.06a23.67,23.67,0,0,1,5.31-1.82l.14,0,0,.14a23.51,23.51,0,0,0,2.19,6.73l.08.16-.17,0A10.61,10.61,0,0,0,27.8,32Zm-4.49-6.2a16.13,16.13,0,0,0,4.51,5.86,10.89,10.89,0,0,1,2.57-1.06,23.93,23.93,0,0,1-2.11-6.51A23.4,23.4,0,0,0,23.23,25.84Z"/><path class="cls-6" d="M35.11,34.51"/><path class="cls-3" d="M41.86,24.23l-.14,0a35.81,35.81,0,0,0-7.61-.73,28,28,0,0,0-5.76.64l-.14,0,0-.14a38.4,38.4,0,0,1-.6-6.62A36.92,36.92,0,0,1,28.44,9l0-.13.13,0a28,28,0,0,0,5.65.53,22.36,22.36,0,0,0,6.9-1.15l.14,0,0,.14a36.29,36.29,0,0,1,1.11,8.86,38.25,38.25,0,0,1-.56,6.81Zm-7.33-1a36,36,0,0,1,7.1.71,38,38,0,0,0,.53-6.63A36,36,0,0,0,41.1,8.62a22.63,22.63,0,0,1-6.84,1.11,28.35,28.35,0,0,1-5.57-.51,36.65,36.65,0,0,0-.82,8.15,38.13,38.13,0,0,0,.57,6.43,28.29,28.29,0,0,1,5.67-.61Z"/><path class="cls-3" d="M34,9.74a28.34,28.34,0,0,1-5.48-.54l-.14,0,0-.14a21.42,21.42,0,0,1,1.83-5.19l.05-.1.11,0a14.59,14.59,0,0,0,3.78.46,11.69,11.69,0,0,0,4.86-1.07l.11-.05.06.11a19.76,19.76,0,0,1,2.08,5.19l0,.13-.12,0a22.64,22.64,0,0,1-7,1.16ZM28.74,9a28.13,28.13,0,0,0,5.51.5A22.36,22.36,0,0,0,41,8.35a19.54,19.54,0,0,0-1.95-4.89,12,12,0,0,1-4.86,1,14.86,14.86,0,0,1-3.75-.44A21.15,21.15,0,0,0,28.74,9Z"/><path class="cls-3" d="M39.54,31.17l-.11,0a17,17,0,0,0-5.28-.72,14.73,14.73,0,0,0-3.59.46l-.11,0-.05-.1A23.72,23.72,0,0,1,28.18,24l0-.13.13,0a28.28,28.28,0,0,1,5.82-.65,36,36,0,0,1,7.66.73l.13,0,0,.13a22.89,22.89,0,0,1-2.28,7Zm-5.23-1a17.31,17.31,0,0,1,5.1.7,22.65,22.65,0,0,0,2.17-6.66,35.65,35.65,0,0,0-7.47-.7,28,28,0,0,0-5.63.61,23.48,23.48,0,0,0,2.12,6.5,15,15,0,0,1,3.55-.44Z"/><path class="cls-6" d="M35.11,34.51"/><path class="cls-3" d="M39.43,31.13a17,17,0,0,0-5.28-.72,14.73,14.73,0,0,0-3.59.46l-.07-.27a15,15,0,0,1,3.66-.47,17.22,17.22,0,0,1,5.37.73Z"/><path class="cls-3" d="M34.07,4.51A14.88,14.88,0,0,1,30.36,4l.07-.27a14.55,14.55,0,0,0,3.78.46,11.69,11.69,0,0,0,4.86-1.07l.12.25a12,12,0,0,1-5,1.1Z"/><path class="cls-6" d="M34.9.14"/><rect class="cls-3" x="34.6" y="4.55" width="0.28" height="25.56"/></g><path class="cls-7" d="M66.07,21.92H.35V16.77l3.12-.08a16.6,16.6,0,0,1,.14-2.78,2.8,2.8,0,0,1,3.05-2.22l6.8-.08v1.72h52.6Z"/><path class="cls-3" d="M66.41,22.27H0V16.43l3.12-.08a17,17,0,0,1,.15-2.48,3.14,3.14,0,0,1,3.4-2.52l7.15-.08V13h52.6ZM.69,21.58h65v-7.9H13.12V12L6.67,12C4.38,12,4,13.64,4,14a16.28,16.28,0,0,0-.13,2.71V17L.69,17.1Z"/><g class="cls-8"><text class="cls-9" transform="translate(12.09 20.43)">INOTRANS</text><text class="cls-10" transform="translate(47.84 19.6)">&amp;</text><text class="cls-9" transform="translate(51.6 20.43)">CSC</text></g><path class="cls-2" d="M2.22,19.46v.69H8.05A1.77,1.77,0,0,0,10,18.62c0-.84-.6-1.14-1.87-1.77A6.29,6.29,0,0,1,6.28,15.7a1.59,1.59,0,0,1-.34-1c0-.67.59-1.61,2.56-1.61.72,0,3,.07,3,.07v.69h-.14v-.56H8.47c-.83,0-1.61.54-1.61,1.24s.48,1,1.7,1.59a7.14,7.14,0,0,1,1.9,1.11,1.65,1.65,0,0,1,.48,1.16c0,1.06-1,1.89-2.84,1.89l-6,0v-.83Z"/><path class="cls-2" d="M8.11,20.68l-6,0H1.74V19.39h.56v.69H8.05c.76,0,1.6-.56,1.6-1.25s-.39-1-1.69-1.67l-.11-.06A5.87,5.87,0,0,1,6,15.92a1.94,1.94,0,0,1-.42-1.17c0-.2.08-2,2.92-2,.72,0,2.94.07,3,.07h.34V14h-.56v-.56H8.47c-1,0-1.33.69-1.26,1.17.08.64.27.64,1.51,1.28l.38.19a5.53,5.53,0,0,1,1.62,1,2,2,0,0,1,.58,1.39C11.29,19.57,10.31,20.68,8.11,20.68ZM6.66,14a1,1,0,0,0-.38.76,1.24,1.24,0,0,0,.28.75,6,6,0,0,0,1.6,1l.11.05c1.28.63,2.06,1,2.06,2.08a1.61,1.61,0,0,1-.22.81,1.24,1.24,0,0,0,.49-1,1.3,1.3,0,0,0-.39-.92,5.27,5.27,0,0,0-1.41-.85L8.4,16.5c-1.22-.63-1.89-1-1.89-1.9A1.29,1.29,0,0,1,6.66,14Z"/></g></g><g class="cls-8"><path class="cls-2" d="M75.55,22.22H79a2.86,2.86,0,0,1,1.74.47,1.43,1.43,0,0,1,.6,1.21,1.46,1.46,0,0,1-.32,1,1.93,1.93,0,0,1-.88.55,2,2,0,0,1,1.14.53A1.51,1.51,0,0,1,81.68,27a1.6,1.6,0,0,1-.79,1.47,3.74,3.74,0,0,1-1.88.39H75.55Zm1.16.84v2h2a2.1,2.1,0,0,0,1.15-.24A.9.9,0,0,0,80.2,24a.8.8,0,0,0-.35-.73,2.05,2.05,0,0,0-1.12-.23Zm0,2.82V28h2.14A2.71,2.71,0,0,0,80,27.83a.89.89,0,0,0,.52-.84,1,1,0,0,0-.4-.86,2.27,2.27,0,0,0-1.23-.26Z"/><path class="cls-3" d="M79,29H75.4v-7H79a3,3,0,0,1,1.83.5,1.58,1.58,0,0,1,.67,1.33,1.61,1.61,0,0,1-.35,1,1.93,1.93,0,0,1-.53.42,1.85,1.85,0,0,1,.77.47A1.66,1.66,0,0,1,81.83,27a1.75,1.75,0,0,1-.86,1.6A3.89,3.89,0,0,1,79,29Zm-3.31-.3H79a3.61,3.61,0,0,0,1.8-.37A1.45,1.45,0,0,0,81.53,27a1.35,1.35,0,0,0-.34-1,1.85,1.85,0,0,0-1.05-.49l-.6-.1.58-.19a1.79,1.79,0,0,0,.81-.51,1.3,1.3,0,0,0,.28-.85,1.28,1.28,0,0,0-.54-1.09A2.74,2.74,0,0,0,79,22.37H75.7Zm3.15-.54H76.56V25.72h2.33A2.38,2.38,0,0,1,80.2,26a1.11,1.11,0,0,1,.47,1,1,1,0,0,1-.6,1A2.86,2.86,0,0,1,78.85,28.19Zm-2-.3h2a2.57,2.57,0,0,0,1.08-.19.74.74,0,0,0,.43-.7.82.82,0,0,0-.34-.73A2.16,2.16,0,0,0,78.89,26h-2Zm1.84-2.69H76.56V22.9h2.17a2.17,2.17,0,0,1,1.21.26.94.94,0,0,1,.42.85,1,1,0,0,1-.41.91A2.21,2.21,0,0,1,78.71,25.19Zm-1.84-.3h1.84a2,2,0,0,0,1.06-.22.75.75,0,0,0,.28-.66.65.65,0,0,0-.28-.6,1.93,1.93,0,0,0-1-.21H76.86Z"/><path class="cls-2" d="M82.28,24.05h1.12V27a1.17,1.17,0,0,0,.3.9,1.32,1.32,0,0,0,.94.29,1.29,1.29,0,0,0,.82-.32A1.7,1.7,0,0,0,86,27V24.05h1.13v4.82H86v-.65a2.23,2.23,0,0,1-1.73.78,1.74,1.74,0,0,1-2-1.95Z"/><path class="cls-3" d="M84.27,29.16a1.89,1.89,0,0,1-2.13-2.1V23.9h1.42V27a1,1,0,0,0,.25.79,1.19,1.19,0,0,0,.84.25,1.14,1.14,0,0,0,.72-.28,1.53,1.53,0,0,0,.47-.76V23.9h1.42V29H85.84v-.45A2.35,2.35,0,0,1,84.27,29.16Zm-1.83-5v2.85a1.6,1.6,0,0,0,1.83,1.8,2.07,2.07,0,0,0,1.62-.73l.26-.29v.9H87V24.2h-.83V27a1.86,1.86,0,0,1-.58.93,1.44,1.44,0,0,1-.91.35,1.46,1.46,0,0,1-1-.33,1.31,1.31,0,0,1-.34-1V24.2Z"/><path class="cls-2" d="M92.33,25.44H91.24a.91.91,0,0,0-.39-.54,1.77,1.77,0,0,0-.87-.17,1.65,1.65,0,0,0-.76.13.46.46,0,0,0-.3.43c0,.16.15.3.45.43a10.33,10.33,0,0,0,1.1.29,5.18,5.18,0,0,1,1.39.46,1.11,1.11,0,0,1,.66,1q0,1.53-2.44,1.53-2.25,0-2.44-1.69h1.1a1,1,0,0,0,.39.69,1.76,1.76,0,0,0,.91.19q1.32,0,1.32-.65,0-.35-.49-.55a6.57,6.57,0,0,0-1.1-.28,4.79,4.79,0,0,1-1.36-.42,1.08,1.08,0,0,1-.64-1,1.13,1.13,0,0,1,.62-1A3.08,3.08,0,0,1,90,23.92Q92.14,23.92,92.33,25.44Z"/><path class="cls-3" d="M90.07,29.16c-1.58,0-2.45-.61-2.59-1.82l0-.17h1.4l0,.12a.9.9,0,0,0,.33.6A1.64,1.64,0,0,0,90,28c.77,0,1.17-.17,1.17-.5,0-.06,0-.25-.39-.41a6.45,6.45,0,0,0-1.08-.27,4.87,4.87,0,0,1-1.4-.44,1.22,1.22,0,0,1-.71-1.1,1.28,1.28,0,0,1,.69-1.15A3.23,3.23,0,0,1,90,23.77c1.51,0,2.35.56,2.48,1.65l0,.17H91.13l0-.1a.76.76,0,0,0-.32-.46,1.63,1.63,0,0,0-.8-.15,1.48,1.48,0,0,0-.69.11c-.2.09-.22.21-.22.3s.13.2.35.29a10.29,10.29,0,0,0,1.08.28,5.32,5.32,0,0,1,1.43.47,1.26,1.26,0,0,1,.73,1.14C92.66,28.59,91.79,29.16,90.07,29.16ZM87.8,27.47c.18.93.92,1.39,2.27,1.39,1.54,0,2.29-.45,2.29-1.38a1,1,0,0,0-.58-.88,5.06,5.06,0,0,0-1.35-.44,10.5,10.5,0,0,1-1.12-.29c-.36-.15-.54-.34-.54-.57a.6.6,0,0,1,.38-.57,1.78,1.78,0,0,1,.83-.15,1.9,1.9,0,0,1,.95.19,1,1,0,0,1,.42.52h.81c-.18-.82-.89-1.22-2.16-1.22a3,3,0,0,0-1.53.35,1,1,0,0,0-.54.9.93.93,0,0,0,.56.84,4.68,4.68,0,0,0,1.31.4,6.52,6.52,0,0,1,1.13.29c.48.19.58.48.58.69,0,.53-.49.8-1.47.8a1.88,1.88,0,0,1-1-.21,1.12,1.12,0,0,1-.43-.67Z"/><path class="cls-2" d="M94.36,22.31a.58.58,0,0,1,.22.48.63.63,0,0,1-.23.49.91.91,0,0,1-1.1,0,.62.62,0,0,1-.22-.49.58.58,0,0,1,.22-.48.81.81,0,0,1,.55-.19A.82.82,0,0,1,94.36,22.31Zm-1.12,1.74h1.12v4.82H93.24Z"/><path class="cls-3" d="M94.51,29H93.09V23.9h1.42Zm-1.12-.3h.82V24.2h-.82Zm.41-5.12a1,1,0,0,1-.65-.22.77.77,0,0,1-.28-.6.72.72,0,0,1,.28-.59A1,1,0,0,1,93.8,22a1,1,0,0,1,.66.22.72.72,0,0,1,.28.59.77.77,0,0,1-.28.6A1,1,0,0,1,93.8,23.61Zm0-1.33a.66.66,0,0,0-.45.15.43.43,0,0,0-.17.36.47.47,0,0,0,.17.37.76.76,0,0,0,.91,0,.48.48,0,0,0,.18-.37.43.43,0,0,0-.17-.36h0A.67.67,0,0,0,93.8,22.27Z"/><path class="cls-2" d="M100.25,25.9v3H99.13V26q0-1.23-1.28-1.23a1.22,1.22,0,0,0-.84.3,1.39,1.39,0,0,0-.46.92v2.9H95.43V24.05h1.12v.6a2,2,0,0,1,.73-.54,2.12,2.12,0,0,1,.92-.19Q100.25,23.92,100.25,25.9Z"/><path class="cls-3" d="M100.4,29H99V26c0-.74-.36-1.08-1.13-1.08a1.06,1.06,0,0,0-.74.26,1.23,1.23,0,0,0-.41.83v3H95.28V23.9H96.7v.39a2.18,2.18,0,0,1,.52-.32,2.28,2.28,0,0,1,1-.2,1.93,1.93,0,0,1,2.2,2.13Zm-1.12-.3h.82V25.9c0-1.23-.62-1.83-1.9-1.83a2,2,0,0,0-.86.17,1.91,1.91,0,0,0-.68.5l-.26.3V24.2h-.82v4.52h.82V26a1.55,1.55,0,0,1,.51-1,1.37,1.37,0,0,1,.94-.34A1.26,1.26,0,0,1,99.28,26Z"/><path class="cls-2" d="M105.45,24.72a3,3,0,0,1,.66,2H102a1.67,1.67,0,0,0,.43,1.08,1.46,1.46,0,0,0,1.05.37,1.71,1.71,0,0,0,1-.24,1.64,1.64,0,0,0,.5-.62H106a2.19,2.19,0,0,1-.75,1.13,2.9,2.9,0,0,1-1.81.55,2.68,2.68,0,0,1-1.92-.66,2.66,2.66,0,0,1,0-3.68,2.52,2.52,0,0,1,1.92-.74A2.55,2.55,0,0,1,105.45,24.72Zm-3,.34A1.57,1.57,0,0,0,102,26h3a1.32,1.32,0,0,0-1.5-1.26A1.47,1.47,0,0,0,102.43,25.06Z"/><path class="cls-3" d="M103.45,29.16a2.84,2.84,0,0,1-2-.7,2.81,2.81,0,0,1,0-3.9,2.67,2.67,0,0,1,2-.78,2.7,2.7,0,0,1,2.16.85,3.15,3.15,0,0,1,.69,2.11v.15h-4.14a1.42,1.42,0,0,0,.37.83,1.31,1.31,0,0,0,.95.33,1.58,1.58,0,0,0,.87-.22,1.52,1.52,0,0,0,.45-.57l0-.08h1.42l-.06.19a2.34,2.34,0,0,1-.8,1.2A3.06,3.06,0,0,1,103.45,29.16Zm0-5.08a2.36,2.36,0,0,0-1.81.69,2.3,2.3,0,0,0-.68,1.7,2.27,2.27,0,0,0,.71,1.77,2.55,2.55,0,0,0,1.82.62,2.77,2.77,0,0,0,1.72-.52,2,2,0,0,0,.63-.86H105a1.7,1.7,0,0,1-.51.6,1.87,1.87,0,0,1-1,.27,1.61,1.61,0,0,1-1.15-.42,1.82,1.82,0,0,1-.48-1.18v-.16H106a2.78,2.78,0,0,0-.62-1.77h0A2.42,2.42,0,0,0,103.4,24.07Zm1.7,2.07H101.8l0-.17a1.72,1.72,0,0,1,.5-1h0a1.62,1.62,0,0,1,1.11-.37A1.48,1.48,0,0,1,105.08,26Zm-2.95-.3h2.6a1.17,1.17,0,0,0-1.32-1,1.33,1.33,0,0,0-.91.29A1.32,1.32,0,0,0,102.15,25.84Z"/><path class="cls-2" d="M111,25.44H109.9a.91.91,0,0,0-.39-.54,1.78,1.78,0,0,0-.87-.17,1.65,1.65,0,0,0-.76.13.46.46,0,0,0-.3.43c0,.16.15.3.45.43a10.35,10.35,0,0,0,1.1.29,5.18,5.18,0,0,1,1.39.46,1.11,1.11,0,0,1,.66,1q0,1.53-2.44,1.53-2.25,0-2.44-1.69h1.1a1,1,0,0,0,.39.69,1.75,1.75,0,0,0,.91.19q1.32,0,1.32-.65,0-.35-.49-.55a6.53,6.53,0,0,0-1.1-.28,4.8,4.8,0,0,1-1.36-.42,1.08,1.08,0,0,1-.64-1,1.13,1.13,0,0,1,.62-1,3.08,3.08,0,0,1,1.61-.37Q110.8,23.92,111,25.44Z"/><path class="cls-3" d="M108.73,29.16c-1.58,0-2.45-.61-2.59-1.82l0-.17h1.39l0,.12a.9.9,0,0,0,.33.6,1.64,1.64,0,0,0,.83.16c.77,0,1.17-.17,1.17-.5,0-.06,0-.25-.39-.41a6.46,6.46,0,0,0-1.08-.27,4.89,4.89,0,0,1-1.41-.44,1.22,1.22,0,0,1-.71-1.1,1.28,1.28,0,0,1,.69-1.15,3.23,3.23,0,0,1,1.69-.39c1.51,0,2.34.56,2.48,1.65l0,.17h-1.37l0-.1a.77.77,0,0,0-.32-.46,1.64,1.64,0,0,0-.8-.15,1.48,1.48,0,0,0-.69.11c-.2.09-.22.21-.22.3s.13.2.35.29a10.16,10.16,0,0,0,1.08.28,5.32,5.32,0,0,1,1.43.47,1.26,1.26,0,0,1,.73,1.14C111.32,28.59,110.45,29.16,108.73,29.16Zm-2.27-1.69c.18.93.92,1.39,2.27,1.39,1.54,0,2.29-.45,2.29-1.38a1,1,0,0,0-.58-.88,5.07,5.07,0,0,0-1.35-.44,10.54,10.54,0,0,1-1.12-.29c-.36-.15-.54-.34-.54-.57a.6.6,0,0,1,.38-.57,1.78,1.78,0,0,1,.83-.15,1.89,1.89,0,0,1,.95.19,1,1,0,0,1,.42.52h.81c-.18-.82-.89-1.22-2.16-1.22a3,3,0,0,0-1.54.35,1,1,0,0,0-.54.9.93.93,0,0,0,.56.84,4.72,4.72,0,0,0,1.32.4,6.49,6.49,0,0,1,1.13.29c.48.19.58.48.58.69,0,.53-.49.8-1.47.8a1.88,1.88,0,0,1-1-.21,1.12,1.12,0,0,1-.43-.67Z"/><path class="cls-2" d="M116.05,25.44H115a.91.91,0,0,0-.39-.54,1.78,1.78,0,0,0-.87-.17,1.65,1.65,0,0,0-.76.13.46.46,0,0,0-.3.43c0,.16.15.3.45.43a10.35,10.35,0,0,0,1.1.29,5.18,5.18,0,0,1,1.39.46,1.11,1.11,0,0,1,.66,1q0,1.53-2.44,1.53-2.25,0-2.44-1.69h1.1a1,1,0,0,0,.39.69,1.75,1.75,0,0,0,.91.19q1.32,0,1.32-.65,0-.35-.49-.55a6.53,6.53,0,0,0-1.1-.28,4.8,4.8,0,0,1-1.36-.42,1.08,1.08,0,0,1-.64-1,1.13,1.13,0,0,1,.62-1,3.08,3.08,0,0,1,1.61-.37Q115.86,23.92,116.05,25.44Z"/><path class="cls-3" d="M113.79,29.16c-1.58,0-2.45-.61-2.59-1.82l0-.17h1.39l0,.12a.9.9,0,0,0,.33.6,1.64,1.64,0,0,0,.83.16c.77,0,1.17-.17,1.17-.5,0-.06,0-.25-.39-.41a6.46,6.46,0,0,0-1.08-.27,4.89,4.89,0,0,1-1.41-.44,1.22,1.22,0,0,1-.71-1.1,1.28,1.28,0,0,1,.69-1.15,3.23,3.23,0,0,1,1.69-.39c1.51,0,2.34.56,2.48,1.65l0,.17h-1.37l0-.1a.77.77,0,0,0-.32-.46,1.64,1.64,0,0,0-.8-.15A1.48,1.48,0,0,0,113,25c-.2.09-.22.21-.22.3s.13.2.35.29a10.16,10.16,0,0,0,1.08.28,5.32,5.32,0,0,1,1.43.47,1.26,1.26,0,0,1,.73,1.14C116.38,28.59,115.51,29.16,113.79,29.16Zm-2.27-1.69c.18.93.92,1.39,2.27,1.39,1.54,0,2.29-.45,2.29-1.38a1,1,0,0,0-.58-.88,5.07,5.07,0,0,0-1.35-.44,10.54,10.54,0,0,1-1.12-.29c-.36-.15-.54-.34-.54-.57a.6.6,0,0,1,.38-.57,1.78,1.78,0,0,1,.83-.15,1.89,1.89,0,0,1,.95.19,1,1,0,0,1,.42.52h.81c-.18-.82-.89-1.22-2.16-1.22a3,3,0,0,0-1.54.35,1,1,0,0,0-.54.9.93.93,0,0,0,.56.84,4.72,4.72,0,0,0,1.32.4,6.49,6.49,0,0,1,1.13.29c.48.19.58.48.58.69,0,.53-.49.8-1.47.8a1.88,1.88,0,0,1-1-.21,1.12,1.12,0,0,1-.43-.67Z"/><path class="cls-2" d="M119.93,22.22h1.15v6.66h-1.15Z"/><path class="cls-3" d="M121.23,29h-1.45v-7h1.45Zm-1.15-.3h.85V22.37h-.85Z"/><path class="cls-2" d="M126.85,25.9v3h-1.12V26q0-1.23-1.28-1.23a1.22,1.22,0,0,0-.84.3,1.39,1.39,0,0,0-.46.92v2.9H122V24.05h1.12v.6a2,2,0,0,1,.73-.54,2.12,2.12,0,0,1,.92-.19Q126.85,23.92,126.85,25.9Z"/><path class="cls-3" d="M127,29h-1.43V26c0-.74-.36-1.08-1.13-1.08a1.07,1.07,0,0,0-.74.26,1.23,1.23,0,0,0-.41.83v3h-1.42V23.9h1.42v.39a2.18,2.18,0,0,1,.52-.32,2.29,2.29,0,0,1,1-.2A1.93,1.93,0,0,1,127,25.9Zm-1.12-.3h.82V25.9c0-1.23-.62-1.83-1.9-1.83a2,2,0,0,0-.86.17,1.91,1.91,0,0,0-.68.5l-.26.3V24.2h-.82v4.52H123V26a1.55,1.55,0,0,1,.51-1,1.37,1.37,0,0,1,.94-.34A1.26,1.26,0,0,1,125.88,26Z"/><path class="cls-2" d="M129.34,22.5v1.56h1.25v.82h-1.25v2.8a.41.41,0,0,0,.1.29.43.43,0,0,0,.3.09h.72v.82h-.9a1.39,1.39,0,0,1-1-.33,1.17,1.17,0,0,1-.31-.88v-2.8h-1v-.82h1V22.91Z"/><path class="cls-3" d="M130.61,29h-1.05a1.53,1.53,0,0,1-1.14-.37,1.31,1.31,0,0,1-.35-1V25h-1V23.9h1V22.8l1.42-.52V23.9h1.25V25h-1.25v2.65a.27.27,0,0,0,.06.19.3.3,0,0,0,.19,0h.87Zm-3.26-4.3h1v2.95a1,1,0,0,0,.26.77,1.26,1.26,0,0,0,.92.28h.75V28.2h-.57a.58.58,0,0,1-.4-.13.55.55,0,0,1-.15-.4V24.72h1.25V24.2h-1.25V22.71l-.82.3V24.2h-1Z"/><path class="cls-2" d="M135.41,24.72a3,3,0,0,1,.66,2h-4.16a1.67,1.67,0,0,0,.43,1.08,1.46,1.46,0,0,0,1.05.37,1.71,1.71,0,0,0,1-.24,1.64,1.64,0,0,0,.5-.62H136a2.19,2.19,0,0,1-.75,1.13,2.9,2.9,0,0,1-1.81.55,2.68,2.68,0,0,1-1.92-.66,2.66,2.66,0,0,1,0-3.68,2.52,2.52,0,0,1,1.92-.74A2.55,2.55,0,0,1,135.41,24.72Zm-3,.34a1.57,1.57,0,0,0-.46.93h3a1.32,1.32,0,0,0-1.5-1.26A1.47,1.47,0,0,0,132.39,25.06Z"/><path class="cls-3" d="M133.41,29.16a2.84,2.84,0,0,1-2-.7,2.81,2.81,0,0,1,0-3.9,2.67,2.67,0,0,1,2-.78,2.7,2.7,0,0,1,2.16.85,3.15,3.15,0,0,1,.69,2.11v.15h-4.14a1.42,1.42,0,0,0,.37.83,1.31,1.31,0,0,0,.95.33,1.58,1.58,0,0,0,.87-.22,1.52,1.52,0,0,0,.45-.57l0-.08h1.42l-.06.19a2.34,2.34,0,0,1-.8,1.2A3.06,3.06,0,0,1,133.41,29.16Zm0-5.08a2.36,2.36,0,0,0-1.81.69,2.3,2.3,0,0,0-.68,1.7,2.27,2.27,0,0,0,.71,1.77,2.55,2.55,0,0,0,1.82.62,2.77,2.77,0,0,0,1.72-.52,2,2,0,0,0,.63-.86h-.83a1.7,1.7,0,0,1-.51.6,1.87,1.87,0,0,1-1,.27,1.61,1.61,0,0,1-1.15-.42,1.82,1.82,0,0,1-.48-1.18v-.16h4.17a2.78,2.78,0,0,0-.62-1.77h0A2.42,2.42,0,0,0,133.36,24.07Zm1.7,2.07h-3.31l0-.17a1.72,1.72,0,0,1,.5-1h0a1.62,1.62,0,0,1,1.11-.37A1.48,1.48,0,0,1,135,26Zm-2.95-.3h2.6a1.17,1.17,0,0,0-1.32-1,1.33,1.33,0,0,0-.91.29A1.32,1.32,0,0,0,132.11,25.84Z"/><path class="cls-2" d="M136.69,22.08h1.13v6.79h-1.12Z"/><path class="cls-3" d="M138,29h-1.43V21.93H138Zm-1.12-.3h.82V22.24h-.82Z"/><path class="cls-2" d="M138.89,22.08H140v6.79h-1.12Z"/><path class="cls-3" d="M140.17,29h-1.43V21.93h1.43Zm-1.12-.3h.82V22.24H139Z"/><path class="cls-2" d="M142.32,22.31a.58.58,0,0,1,.22.48.63.63,0,0,1-.23.49.91.91,0,0,1-1.1,0,.62.62,0,0,1-.22-.49.58.58,0,0,1,.22-.48.81.81,0,0,1,.55-.19A.82.82,0,0,1,142.32,22.31Zm-1.12,1.74h1.12v4.82h-1.12Z"/><path class="cls-3" d="M142.47,29H141V23.9h1.42Zm-1.12-.3h.82V24.2h-.82Zm.41-5.12a1,1,0,0,1-.65-.22.78.78,0,0,1-.28-.6.72.72,0,0,1,.28-.59,1,1,0,0,1,.65-.22,1,1,0,0,1,.66.22.72.72,0,0,1,.28.59.77.77,0,0,1-.28.6A1,1,0,0,1,141.76,23.61Zm0-1.33a.66.66,0,0,0-.45.15.43.43,0,0,0-.17.36.47.47,0,0,0,.17.37.76.76,0,0,0,.91,0,.48.48,0,0,0,.18-.37.43.43,0,0,0-.17-.36h0A.67.67,0,0,0,141.76,22.27Z"/><path class="cls-2" d="M147.34,24.7v-.64h1.13v4.5q0,2.3-2.56,2.29a3.33,3.33,0,0,1-1.75-.38,1.73,1.73,0,0,1-.75-1.18h1.12a.87.87,0,0,0,.4.61,2.07,2.07,0,0,0,1,.18q1.43,0,1.43-1.36V28a2,2,0,0,1-1.68.8,2.49,2.49,0,0,1-1.8-.66,2.27,2.27,0,0,1-.69-1.74,2.32,2.32,0,0,1,.69-1.75,2.43,2.43,0,0,1,1.8-.68A2,2,0,0,1,147.34,24.7Zm-2.61.47a1.63,1.63,0,0,0-.4,1.19,1.76,1.76,0,0,0,.32,1.11,1.4,1.4,0,0,0,1.19.48,1.51,1.51,0,0,0,1.13-.42,1.72,1.72,0,0,0,.39-1.18,1.74,1.74,0,0,0-.39-1.19,1.45,1.45,0,0,0-1.12-.44A1.36,1.36,0,0,0,144.73,25.16Z"/><path class="cls-3" d="M145.9,31a3.48,3.48,0,0,1-1.83-.41,1.88,1.88,0,0,1-.82-1.28l0-.18h1.43l0,.12a.73.73,0,0,0,.33.51,2,2,0,0,0,.9.16c.88,0,1.28-.38,1.28-1.21v-.36a2.16,2.16,0,0,1-1.53.56,2.65,2.65,0,0,1-1.91-.7,2.42,2.42,0,0,1-.74-1.85,2.47,2.47,0,0,1,.74-1.86,2.59,2.59,0,0,1,1.91-.72,2.2,2.2,0,0,1,1.53.54V23.9h1.43v4.66C148.61,30.18,147.7,31,145.9,31Zm-2.31-1.57a1.52,1.52,0,0,0,.64.91,3.21,3.21,0,0,0,1.67.36c1.62,0,2.41-.7,2.41-2.14V24.2h-.82v.93l-.27-.35a1.83,1.83,0,0,0-1.56-.71,2.3,2.3,0,0,0-1.7.64,2.16,2.16,0,0,0-.65,1.65A2.11,2.11,0,0,0,144,28a2.36,2.36,0,0,0,1.7.62,1.82,1.82,0,0,0,1.56-.74l.27-.36v1.19a1.38,1.38,0,0,1-1.58,1.51,2.19,2.19,0,0,1-1-.2,1,1,0,0,1-.45-.59Zm2.24-1.33a1.55,1.55,0,0,1-1.31-.54,1.91,1.91,0,0,1-.35-1.2,1.78,1.78,0,0,1,.44-1.29,1.51,1.51,0,0,1,1.21-.49,1.6,1.6,0,0,1,1.24.49,1.9,1.9,0,0,1,.43,1.29,1.87,1.87,0,0,1-.43,1.27A1.66,1.66,0,0,1,145.83,28.1Zm0-3.23a1.21,1.21,0,0,0-1,.38h0a1.5,1.5,0,0,0-.36,1.09,1.63,1.63,0,0,0,.29,1,1.25,1.25,0,0,0,1.07.43,1.36,1.36,0,0,0,1-.37,1.56,1.56,0,0,0,.35-1.07,1.61,1.61,0,0,0-.35-1.09A1.3,1.3,0,0,0,145.83,24.87Z"/><path class="cls-2" d="M153.65,24.72a3,3,0,0,1,.66,2h-4.16a1.67,1.67,0,0,0,.43,1.08,1.46,1.46,0,0,0,1.05.37,1.71,1.71,0,0,0,1-.24,1.64,1.64,0,0,0,.5-.62h1.13a2.19,2.19,0,0,1-.75,1.13,2.9,2.9,0,0,1-1.81.55,2.68,2.68,0,0,1-1.92-.66,2.66,2.66,0,0,1,0-3.68,2.52,2.52,0,0,1,1.92-.74A2.55,2.55,0,0,1,153.65,24.72Zm-3,.34a1.57,1.57,0,0,0-.46.93h3a1.32,1.32,0,0,0-1.5-1.26A1.47,1.47,0,0,0,150.63,25.06Z"/><path class="cls-3" d="M151.64,29.16a2.84,2.84,0,0,1-2-.7,2.81,2.81,0,0,1,0-3.9,2.67,2.67,0,0,1,2-.78,2.7,2.7,0,0,1,2.16.85,3.15,3.15,0,0,1,.69,2.11v.15h-4.14a1.42,1.42,0,0,0,.37.83,1.31,1.31,0,0,0,.95.33,1.58,1.58,0,0,0,.87-.22,1.52,1.52,0,0,0,.45-.57l0-.08h1.42l-.06.19a2.34,2.34,0,0,1-.8,1.2A3.06,3.06,0,0,1,151.64,29.16Zm0-5.08a2.36,2.36,0,0,0-1.81.69,2.3,2.3,0,0,0-.68,1.7,2.27,2.27,0,0,0,.71,1.77,2.55,2.55,0,0,0,1.82.62,2.77,2.77,0,0,0,1.72-.52,2,2,0,0,0,.63-.86h-.83a1.7,1.7,0,0,1-.51.6,1.87,1.87,0,0,1-1,.27,1.61,1.61,0,0,1-1.15-.42,1.82,1.82,0,0,1-.48-1.18v-.16h4.17a2.78,2.78,0,0,0-.62-1.77h0A2.42,2.42,0,0,0,151.6,24.07Zm1.7,2.07H150l0-.17a1.72,1.72,0,0,1,.5-1h0a1.62,1.62,0,0,1,1.11-.37A1.48,1.48,0,0,1,153.28,26Zm-2.95-.3H153a1.17,1.17,0,0,0-1.32-1,1.33,1.33,0,0,0-.91.29A1.32,1.32,0,0,0,150.35,25.84Z"/><path class="cls-2" d="M159.63,25.9v3h-1.12V26q0-1.23-1.28-1.23a1.22,1.22,0,0,0-.84.3,1.39,1.39,0,0,0-.46.92v2.9h-1.12V24.05h1.12v.6a2,2,0,0,1,.73-.54,2.12,2.12,0,0,1,.92-.19Q159.63,23.92,159.63,25.9Z"/><path class="cls-3" d="M159.78,29h-1.43V26c0-.74-.36-1.08-1.13-1.08a1.07,1.07,0,0,0-.74.26,1.23,1.23,0,0,0-.41.83v3h-1.42V23.9h1.42v.39a2.18,2.18,0,0,1,.52-.32,2.29,2.29,0,0,1,1-.2,1.93,1.93,0,0,1,2.2,2.13Zm-1.12-.3h.82V25.9c0-1.23-.62-1.83-1.9-1.83a2,2,0,0,0-.86.17,1.91,1.91,0,0,0-.68.5l-.26.3V24.2H155v4.52h.82V26a1.55,1.55,0,0,1,.51-1,1.37,1.37,0,0,1,.94-.34A1.26,1.26,0,0,1,158.66,26Z"/><path class="cls-2" d="M164.59,24.34a2,2,0,0,1,.81,1.34h-1.11a1.1,1.1,0,0,0-.46-.72,1.61,1.61,0,0,0-.92-.23,1.37,1.37,0,0,0-1.09.46,1.81,1.81,0,0,0-.4,1.27,1.9,1.9,0,0,0,.39,1.28,1.32,1.32,0,0,0,1.09.46,1.23,1.23,0,0,0,1.41-1.1h1.11a2.27,2.27,0,0,1-.84,1.45,2.83,2.83,0,0,1-1.7.47,2.58,2.58,0,0,1-2-.73,2.74,2.74,0,0,1,0-3.6,2.61,2.61,0,0,1,2-.75A3,3,0,0,1,164.59,24.34Z"/><path class="cls-3" d="M162.88,29.16a2.74,2.74,0,0,1-2.06-.77,2.89,2.89,0,0,1,0-3.81,2.76,2.76,0,0,1,2.09-.8,3.18,3.18,0,0,1,1.77.44h0a2.15,2.15,0,0,1,.87,1.44l0,.18h-1.41l0-.12a1,1,0,0,0-.39-.63,1.47,1.47,0,0,0-.84-.21,1.21,1.21,0,0,0-1,.4,1.68,1.68,0,0,0-.37,1.17,1.76,1.76,0,0,0,.36,1.18,1.17,1.17,0,0,0,1,.4c.75,0,1.17-.32,1.26-1l0-.13h1.43l0,.18a2.43,2.43,0,0,1-.9,1.54A3,3,0,0,1,162.88,29.16Zm0-5.08a2.48,2.48,0,0,0-1.88.71,2.6,2.6,0,0,0,0,3.39,2.45,2.45,0,0,0,1.85.68,2.7,2.7,0,0,0,1.61-.44,2.06,2.06,0,0,0,.74-1.17h-.8a1.38,1.38,0,0,1-1.54,1.1,1.47,1.47,0,0,1-1.21-.51,2.05,2.05,0,0,1-.43-1.37,2,2,0,0,1,.44-1.37,1.51,1.51,0,0,1,1.2-.51,1.77,1.77,0,0,1,1,.26,1.2,1.2,0,0,1,.49.69h.81a1.78,1.78,0,0,0-.71-1.07A2.9,2.9,0,0,0,162.9,24.07Z"/><path class="cls-2" d="M170.3,24.72a3,3,0,0,1,.66,2h-4.16a1.67,1.67,0,0,0,.43,1.08,1.46,1.46,0,0,0,1.05.37,1.71,1.71,0,0,0,1-.24,1.64,1.64,0,0,0,.5-.62h1.13a2.19,2.19,0,0,1-.75,1.13,2.9,2.9,0,0,1-1.81.55,2.68,2.68,0,0,1-1.92-.66,2.66,2.66,0,0,1,0-3.68,2.52,2.52,0,0,1,1.92-.74A2.55,2.55,0,0,1,170.3,24.72Zm-3,.34a1.57,1.57,0,0,0-.46.93h3a1.32,1.32,0,0,0-1.5-1.26A1.47,1.47,0,0,0,167.27,25.06Z"/><path class="cls-3" d="M168.29,29.16a2.84,2.84,0,0,1-2-.7,2.81,2.81,0,0,1,0-3.9,2.67,2.67,0,0,1,2-.78,2.7,2.7,0,0,1,2.16.85,3.15,3.15,0,0,1,.69,2.11v.15H167a1.42,1.42,0,0,0,.37.83,1.31,1.31,0,0,0,.95.33,1.58,1.58,0,0,0,.87-.22,1.52,1.52,0,0,0,.45-.57l0-.08h1.42l-.06.19a2.34,2.34,0,0,1-.8,1.2A3.06,3.06,0,0,1,168.29,29.16Zm0-5.08a2.36,2.36,0,0,0-1.81.69,2.3,2.3,0,0,0-.68,1.7,2.27,2.27,0,0,0,.71,1.77,2.55,2.55,0,0,0,1.82.62,2.77,2.77,0,0,0,1.72-.52,2,2,0,0,0,.63-.86h-.83a1.7,1.7,0,0,1-.51.6,1.87,1.87,0,0,1-1,.27,1.61,1.61,0,0,1-1.15-.42,1.82,1.82,0,0,1-.48-1.18v-.16h4.17a2.78,2.78,0,0,0-.62-1.77h0A2.42,2.42,0,0,0,168.25,24.07Zm1.7,2.07h-3.31l0-.17a1.72,1.72,0,0,1,.5-1h0a1.62,1.62,0,0,1,1.11-.37A1.48,1.48,0,0,1,169.92,26Zm-2.95-.3h2.6a1.17,1.17,0,0,0-1.32-1,1.33,1.33,0,0,0-.91.29A1.32,1.32,0,0,0,167,25.84Z"/></g><g class="cls-8"><path class="cls-2" d="M78.72,7.43a25.05,25.05,0,0,1-2,4.13q.51-.06,1.37-.22.22-.42.78-1.55l1.55.51a33.14,33.14,0,0,1-3,4.75,20.64,20.64,0,0,0,2.69-.79v1.31a24.11,24.11,0,0,1-4.54,1l-.42-1.31a2.64,2.64,0,0,0,.74-.39,14.72,14.72,0,0,0,1.55-2.3q-.67.08-2.08.31l-.4-1.25a1.54,1.54,0,0,0,.66-.51,30.89,30.89,0,0,0,1.61-4.24ZM80,18a24.55,24.55,0,0,1-4.7,1.36l-.22-1.46A26.52,26.52,0,0,0,80,16.6Zm3.05-2.25a12.1,12.1,0,0,1-1.76,3.74l-1.41-.8a9.62,9.62,0,0,0,1.63-3.22Zm6.15-7.42v2.89H87.83v.89H81.9v-.89H80.51V8.35h3.36a12.34,12.34,0,0,0-.66-1.22l1.71-.25q.35.76.61,1.47ZM82.87,19.85l-.35-1.38a9.45,9.45,0,0,0,1.2.1q.51,0,.51-.69V14.65H80.68V13.27H89v1.38H85.83v3.6a1.39,1.39,0,0,1-1.55,1.6Zm-.78-9h5.53V9.69H82.09ZM88,15.38a23.51,23.51,0,0,1,1.63,3.44l-1.47.58a24.61,24.61,0,0,0-1.6-3.61Z"/><path class="cls-3" d="M84.28,20.1h-1.6l-.42-1.65a10.5,10.5,0,0,1-.75,1.21l-.13.18-1.85-1.05.17-.23.15-.2a25.23,25.23,0,0,1-4.49,1.27l-.25,0-.3-2,.24,0a26.41,26.41,0,0,0,4.88-1.31l.34-.13v1.5a9.11,9.11,0,0,0,1-2.32l.06-.22,2,.37-.08.27a13.87,13.87,0,0,1-.92,2.36l.17,0a9.26,9.26,0,0,0,1.17.1c.1,0,.26,0,.26-.44v-3H80.43V13h8.86V14.9H86.08v3.35A1.63,1.63,0,0,1,84.28,20.1Zm-1.21-.5h1.21c.9,0,1.3-.42,1.3-1.35V14.4h3.21v-.88H80.93v.88h3.55v3.48c0,.85-.53.94-.76.94a8.16,8.16,0,0,1-.87-.06Zm-2.8-1,1,.55A11.89,11.89,0,0,0,82.75,16l-1-.19A9.88,9.88,0,0,1,80.27,18.63Zm-4.9-.51.15,1a24.3,24.3,0,0,0,4.24-1.24V17A27.28,27.28,0,0,1,75.37,18.13ZM88,19.72,88,19.48a24.46,24.46,0,0,0-1.58-3.57l-.15-.27,1.93-.55.1.17a23.9,23.9,0,0,1,1.65,3.48L90,19ZM87,15.94a25,25,0,0,1,1.38,3.13l1-.39a23.39,23.39,0,0,0-1.43-3Zm-11.62.93-.55-1.73.22-.08a2.41,2.41,0,0,0,.67-.35,12.91,12.91,0,0,0,1.23-1.79l-1.56.24-.21,0-.54-1.68.22-.08a1.3,1.3,0,0,0,.55-.43,31.61,31.61,0,0,0,1.57-4.16L77,6.59l2,.69-.1.24a27.52,27.52,0,0,1-1.77,3.72l.72-.13q.23-.44.73-1.43l.1-.19,1.54.5V8.1h3.21c-.14-.28-.3-.56-.47-.84l-.2-.32,2.27-.34.08.17c.21.45.4.9.56,1.33h3.77V11.5H88.08v.89H81.65V11.5H80.26v-.45A36.42,36.42,0,0,1,78,14.64c.64-.17,1.3-.37,2-.61l.34-.12v1.85l-.17.06a24.48,24.48,0,0,1-4.59,1Zm.07-1.44.28.89a24.06,24.06,0,0,0,4.11-.95v-.77a20.59,20.59,0,0,1-2.38.68l-.7.15.46-.56A31.8,31.8,0,0,0,80,10.44L79,10.09q-.48,1-.69,1.36l-.06.11-.12,0c-.59.12-1,.19-1.4.23l-.52.06.28-.44a24.24,24.24,0,0,0,1.91-3.84l-1-.35a31.24,31.24,0,0,1-1.55,4,2,2,0,0,1-.58.53l.27.84,1.87-.28.5-.06-.25.44A14.81,14.81,0,0,1,76,15.07,2.54,2.54,0,0,1,75.41,15.44Zm6.73-3.56h5.43V11H82.15ZM87.87,11H89V8.6H85.35l-.06-.17c-.15-.42-.32-.85-.52-1.28l-1.16.17c.17.31.33.62.48.92l.17.36h-3.5V11h1.08V9.44h6Zm-5.53-.45h5V9.94h-5Z"/><path class="cls-2" d="M99.54,6.93a22.26,22.26,0,0,0,6.92,4.65L105.55,13a21.93,21.93,0,0,1-2.38-1.29v1H94.7v-1q-1.21.73-2.45,1.33l-.9-1.43a23,23,0,0,0,7-4.67Zm4.67,7.12V20H102.6v-.72H95.28V20H93.66v-5.9Zm-8.93,3.79h7.32V15.44H95.28Zm7.19-6.59a21.32,21.32,0,0,1-3.53-3,18.81,18.81,0,0,1-3.55,3Z"/><path class="cls-3" d="M104.46,20.21h-2.11v-.72H95.53v.72H93.41v-6.4h11Zm-1.61-.5H104v-5.4h-10v5.4H95V19h7.82Zm0-1.61H95V15.19h7.82Zm-7.32-.5h6.82V15.69H95.53Zm-3.36-4.25L91,11.49l.26-.12a22.9,22.9,0,0,0,6.89-4.61l.07-.07h1.42l.07.07a22.1,22.1,0,0,0,6.84,4.6l.27.12-1.19,1.85-.2-.09a22.57,22.57,0,0,1-2-1.07v.77h-9v-.79c-.68.4-1.38.78-2.08,1.12Zm-.44-1.65.62,1c.75-.38,1.5-.79,2.22-1.22l.68-.43a18.66,18.66,0,0,0,3.5-3l.18-.2.18.2a21.22,21.22,0,0,0,3.49,3l.31.21h0l.38.24a21.7,21.7,0,0,0,2.16,1.19l.63-1a22.62,22.62,0,0,1-6.65-4.51h-1A23.3,23.3,0,0,1,91.72,11.71Zm3.23.72h8v-.92H95ZM96.19,11h5.49a21.35,21.35,0,0,1-2.74-2.38A18.92,18.92,0,0,1,96.19,11Z"/><path class="cls-2" d="M114.44,8a16.38,16.38,0,0,1-2.21,2.85,20.1,20.1,0,0,1-3.15,2.42l-.91-1.31a10.29,10.29,0,0,0,2.81-2,14.75,14.75,0,0,0,2-2.67Zm-3.93,5.82V12.4h10a33.77,33.77,0,0,1-.34,4.41,4.42,4.42,0,0,1-.88,2.35,2.72,2.72,0,0,1-1.93.7h-3L114,18.46q1.82.06,2.6.06a1.75,1.75,0,0,0,1.74-.87,13,13,0,0,0,.54-3.85H115a10.47,10.47,0,0,1-1.53,3.53A10.4,10.4,0,0,1,109.95,20l-1-1.18A9.46,9.46,0,0,0,112,16.66a7.33,7.33,0,0,0,1.36-2.87ZM118.24,7a9.57,9.57,0,0,0,4.68,5l-1.13,1.15a11.63,11.63,0,0,1-5-5.41Z"/><path class="cls-3" d="M109.89,20.31l-1.39-1.57.3-.14a9.24,9.24,0,0,0,3-2.1A6.82,6.82,0,0,0,113.06,14h-2.8V12.75l-1,.7-.2.13-1.22-1.75.27-.13a10.08,10.08,0,0,0,2.74-2,14.5,14.5,0,0,0,2-2.62l.12-.2,1.85,1-.14.23a16.71,16.71,0,0,1-2.24,2.9,13.74,13.74,0,0,1-1.33,1.15h8.83a11.2,11.2,0,0,1-3.31-4.3l-.09-.22,1.88-.93.1.25A9.37,9.37,0,0,0,123,11.79l.3.16-1.51,1.53-.17-.1q-.46-.28-.9-.57a32.74,32.74,0,0,1-.33,4.05,4.6,4.6,0,0,1-.94,2.48,3,3,0,0,1-2.1.78h-3.19l-.59-1.92H114c1.21,0,2.08.06,2.6.06a1.51,1.51,0,0,0,1.52-.73,12.11,12.11,0,0,0,.5-3.49h-3.35a10.54,10.54,0,0,1-1.52,3.42,10.69,10.69,0,0,1-3.65,2.76Zm-.57-1.41.69.79a10,10,0,0,0,3.31-2.53,10.29,10.29,0,0,0,1.49-3.43l0-.19h4.26v.26a13,13,0,0,1-.57,3.94,2,2,0,0,1-2,1q-.71,0-2.26,0l.27.89h2.8a2.5,2.5,0,0,0,1.75-.62,4.23,4.23,0,0,0,.82-2.22,32.67,32.67,0,0,0,.33-4.12h-9.51v.89h3l-.08.31a7.61,7.61,0,0,1-1.41,3A9.4,9.4,0,0,1,109.32,18.9ZM108.55,12l.61.87a19.21,19.21,0,0,0,2.91-2.25,15.78,15.78,0,0,0,2-2.58l-1-.51a14.91,14.91,0,0,1-2,2.52A10.82,10.82,0,0,1,108.55,12Zm12.24.17q.46.34,1,.65l.76-.78a9.8,9.8,0,0,1-4.4-4.68l-1,.48a11,11,0,0,0,3.57,4.28h.06Z"/><path class="cls-2" d="M128.86,19.95h-1.65V13.51a15.64,15.64,0,0,1-1.81,3.26l-.72-1.62A11.54,11.54,0,0,0,127.11,11h-2V9.56h2.14V7h1.65v2.6h2V11h-2v.56q1.1,1,2.17,2.08l-.91,1.18q-.64-.9-1.26-1.67ZM139,8.3a26.63,26.63,0,0,1-5.95.93v2.08h6.31v1.42h-2.19v7.22h-1.68V12.72h-2.45a11.47,11.47,0,0,1-2.48,7.17l-1.18-1.11a9.67,9.67,0,0,0,2.06-6.15V8a24.3,24.3,0,0,0,6.73-1Z"/><path class="cls-3" d="M130.63,20.25l-1.53-1.43V20.2H127V14.67a16,16,0,0,1-1.35,2.24l-.25.35-1-2.16.11-.12a11.38,11.38,0,0,0,2.26-3.76h-1.95V9.31H127V6.71h2.15v2.6h2v1.92h-2v.2c.7.61,1.4,1.28,2.09,2,0-.27,0-.54.05-.81V7.73h.24a24.16,24.16,0,0,0,6.66-1l.19-.06,1.09,1.77-.32.09a26.77,26.77,0,0,1-5.76.92v1.59h6.31V13h-2.19V20.2h-2.18V13h-2a11.64,11.64,0,0,1-2.53,7.08Zm5.15-.56H137V12.47h2.19v-.92h-6.31V9h.24a27,27,0,0,0,5.57-.83l-.54-.87a24.68,24.68,0,0,1-6.37.95v4.41a10.14,10.14,0,0,1-2,6.13l.82.77a11.44,11.44,0,0,0,2.25-6.81v-.24h2.93Zm-8.33,0h1.15V12.42l.44.55c.35.43.71.9,1.08,1.41l.58-.74c-.66-.68-1.33-1.32-2-1.91l-.09-.07v-.93h2V9.81h-2V7.21h-1.15v2.6h-2.14v.92h2.14l-.11.33A11.83,11.83,0,0,1,125,15.2l.47,1.06A15.5,15.5,0,0,0,127,13.42l.48-1.18Zm1.65-5.84v4.92l.14-.16a8.7,8.7,0,0,0,1.9-4.73l-1,1.34-.2-.27Q129.5,14.37,129.11,13.85Z"/><path class="cls-2" d="M142.3,7.47h13.06V8.9h-5.77v4.83h6.36v1.42h-6.36V20h-1.69V15.15h-6.23V13.74h6.23V8.9H142.3Zm2.35,2a31,31,0,0,1,1.66,3.13l-1.57.67a24.32,24.32,0,0,0-1.65-3.15Zm10,.58a16.16,16.16,0,0,1-1.76,3.15l-1.5-.67a16.64,16.64,0,0,0,1.74-3.1Z"/><path class="cls-3" d="M149.84,20.21h-2.19V15.4h-6.23V13.49h3.16l0-.11a24.14,24.14,0,0,0-1.63-3.12l-.15-.25,2-.86H142V7.22h13.56V9.15h-2.47l1.81.75-.1.23a16.47,16.47,0,0,1-1.79,3.2l-.11.15h3.24V15.4h-6.36Zm-1.69-.5h1.19V14.9h6.36V14h-6.36V8.65h5.77V7.72H142.55v.93h5.59V14h-6.23v.92h6.23Zm1.69-6.22h3.08L151,12.62l.17-.25a16.47,16.47,0,0,0,1.72-3.06l.07-.16h-3.1Zm-5,0h2.76V9.15h-2.89l.11.18a31.59,31.59,0,0,1,1.68,3.16l.11.23Zm-1.42-3.25a25,25,0,0,1,1.41,2.7l1.1-.47c-.48-1-1-1.91-1.43-2.69Zm8.28,2.17,1,.47a16,16,0,0,0,1.52-2.7l-1.06-.44A17,17,0,0,1,151.74,12.41Z"/><path class="cls-2" d="M158.6,11.33q1.69-.24,5-4.43l1.73.53a28.57,28.57,0,0,1-3.8,3.85q3.88-.17,7.58-.46-.7-.91-1.47-1.76l1.52-.63a42.69,42.69,0,0,1,3.63,4.65l-1.63.7q-.43-.7-1.09-1.66-5,.39-11.11.59ZM170.94,14v6h-1.69v-.53h-7.64V20h-1.69V14Zm-9.33,4.09h7.64V15.38h-7.64Z"/><path class="cls-3" d="M171.19,20.25H169v-.53h-7.14v.53h-2.19V13.72h11.1c-.24-.39-.54-.84-.88-1.33-3.29.26-7,.45-11,.58h-.21l-.41-1.86.27,0c1.06-.15,2.67-1.61,4.79-4.33l.11-.14,2.25.7-.24.29A30.22,30.22,0,0,1,162.2,11c2.17-.1,4.31-.23,6.37-.39-.37-.47-.77-.93-1.17-1.38L167.16,9l2-.84.12.13a43.2,43.2,0,0,1,3.65,4.68l.17.25-1.92.83Zm-1.69-.5h1.19V14.22H160.16v5.53h1.19v-.53h8.14Zm.64-7.88.08.12c.38.56.71,1.05,1,1.48l1.15-.5A42.5,42.5,0,0,0,169,8.74l-1,.43c.43.49.85,1,1.25,1.51l.28.36-.46,0c-2.44.19-5,.35-7.58.46l-.75,0,.58-.48a27.93,27.93,0,0,0,3.53-3.53l-1.2-.37c-2,2.58-3.58,4-4.75,4.33l.21.94c4-.13,7.63-.33,10.89-.58Zm-.64,6.44h-8.14V15.13h8.14Zm-7.64-.5H169V15.63h-7.14Z"/></g></g></g></svg>